<svg id="svg" version="1.1" xmlns="http://www.w3.org/2000/svg" xmlns:xlink="http://www.w3.org/1999/xlink" width="400" height="390.4761904761905" viewBox="0, 0, 400,390.4761904761905"><g id="svgg"><path id="path0" d="M135.742 60.837 C 133.291 61.182,128.519 63.046,125.159 64.972 C 123.327 66.022,118.927 71.031,117.207 74.023 C 115.073 77.736,114.295 84.759,115.433 90.039 C 116.797 96.370,116.706 98.341,114.867 102.202 C 113.209 105.685,107.550 114.866,105.270 117.773 C 104.596 118.633,103.023 120.830,101.775 122.656 C 100.526 124.482,98.683 126.855,97.679 127.930 C 96.675 129.004,94.992 130.938,93.939 132.227 C 92.886 133.516,91.599 135.010,91.079 135.547 C 90.559 136.084,89.855 136.963,89.514 137.500 C 89.173 138.037,87.888 139.725,86.657 141.251 C 83.824 144.763,83.517 145.790,85.024 146.701 C 85.634 147.069,86.885 147.875,87.804 148.490 C 90.022 149.975,89.860 150.038,92.664 146.603 C 94.013 144.950,96.372 142.270,97.905 140.646 C 102.592 135.684,107.868 129.021,111.376 123.633 C 111.935 122.773,114.064 119.521,116.106 116.406 C 118.148 113.291,120.217 109.951,120.705 108.984 C 122.051 106.316,123.749 103.937,126.004 101.563 C 127.126 100.381,128.546 98.864,129.159 98.192 C 129.772 97.520,131.855 95.669,133.789 94.078 C 142.232 87.132,151.517 82.870,159.570 82.244 C 161.289 82.111,163.926 81.758,165.430 81.461 C 171.883 80.184,179.087 79.897,187.352 80.585 C 202.000 81.805,213.058 83.949,222.978 87.490 C 230.325 90.113,231.258 90.513,235.941 93.049 C 238.199 94.272,241.095 95.736,242.378 96.303 C 248.454 98.991,260.320 108.011,264.314 112.981 C 266.882 116.175,267.318 117.155,270.772 127.500 C 272.272 131.990,273.939 136.648,274.478 137.851 C 275.016 139.055,276.512 142.500,277.802 145.508 C 279.092 148.516,280.491 151.537,280.911 152.223 L 281.675 153.469 283.080 152.516 C 284.946 151.249,288.173 151.761,289.244 153.493 C 289.373 153.702,289.720 153.779,290.016 153.666 C 290.797 153.366,290.136 151.574,285.562 141.602 C 284.000 138.196,282.654 134.947,281.514 131.836 C 280.963 130.332,280.039 127.871,279.460 126.367 C 278.882 124.863,278.277 123.176,278.115 122.617 C 277.703 121.188,278.753 118.481,281.390 114.172 C 282.602 112.191,283.595 110.433,283.596 110.266 C 283.597 110.098,283.878 109.434,284.221 108.789 C 286.235 104.994,287.426 99.072,286.773 96.094 C 285.768 91.509,284.094 88.655,280.571 85.520 C 279.528 84.592,276.303 82.813,275.664 82.813 C 275.353 82.813,274.309 82.463,273.342 82.035 C 270.131 80.615,255.908 80.594,254.110 82.007 C 253.890 82.179,253.008 82.540,252.148 82.809 C 250.243 83.405,248.385 84.501,246.755 85.990 C 245.106 87.496,244.168 87.409,240.042 85.372 C 238.107 84.416,234.833 83.026,232.766 82.282 C 230.700 81.539,228.679 80.761,228.274 80.553 C 226.723 79.758,223.175 78.426,221.680 78.077 C 220.820 77.876,219.502 77.476,218.750 77.188 C 217.998 76.899,216.340 76.536,215.064 76.380 C 213.789 76.225,212.295 75.924,211.744 75.712 C 211.193 75.500,208.457 75.084,205.664 74.786 C 202.871 74.489,199.443 74.070,198.047 73.856 C 190.316 72.668,171.999 72.124,162.659 72.806 L 157.936 73.150 154.033 69.192 C 151.886 67.015,149.934 65.234,149.694 65.234 C 149.454 65.234,149.117 65.015,148.945 64.746 C 147.514 62.509,139.897 60.254,135.742 60.837 M149.414 122.670 C 135.333 124.269,121.026 132.633,114.137 143.292 C 113.327 144.544,112.035 146.434,111.264 147.492 C 107.616 152.499,107.370 154.690,110.457 154.684 C 111.473 154.682,114.414 154.858,116.992 155.075 C 119.570 155.291,128.184 155.656,136.133 155.884 C 144.082 156.113,152.598 156.522,155.056 156.792 C 160.658 157.409,160.892 157.356,162.243 155.159 C 168.120 145.597,169.296 132.837,164.896 126.372 C 162.840 123.351,156.585 121.856,149.414 122.670 M220.508 127.143 C 216.118 128.113,212.670 130.851,210.506 135.083 C 208.446 139.113,209.978 154.163,212.467 154.341 C 212.807 154.366,220.381 154.421,229.297 154.464 C 238.305 154.508,247.330 154.743,249.609 154.994 C 251.865 155.241,255.817 155.633,258.391 155.864 C 263.949 156.362,265.051 156.868,266.374 159.530 C 267.256 161.303,267.356 161.380,267.864 160.695 C 270.714 156.853,259.222 139.665,250.918 135.352 C 250.091 134.922,249.238 134.433,249.023 134.264 C 248.327 133.718,243.997 131.202,242.014 130.192 C 235.929 127.089,226.681 125.778,220.508 127.143 M81.202 152.146 C 75.581 155.831,72.692 170.035,75.557 179.901 C 75.866 180.965,76.239 182.715,76.387 183.789 C 76.715 186.182,77.639 188.610,79.906 193.036 C 82.993 199.064,83.717 198.821,64.453 198.211 C 50.924 197.782,45.944 198.577,44.569 201.384 C 43.949 202.651,44.601 210.059,45.531 212.305 C 45.798 212.949,46.145 214.707,46.302 216.211 C 46.459 217.715,46.757 219.385,46.964 219.922 C 47.172 220.459,47.579 222.217,47.869 223.828 C 48.160 225.439,48.670 227.719,49.003 228.894 C 49.337 230.068,49.609 231.440,49.609 231.940 C 49.609 232.441,49.858 233.332,50.162 233.920 C 50.466 234.507,50.827 235.685,50.965 236.537 C 51.302 238.623,52.609 243.802,53.526 246.680 C 53.936 247.969,54.441 249.727,54.648 250.586 C 54.855 251.445,55.491 253.906,56.062 256.055 C 57.316 260.771,58.032 263.635,58.990 267.773 C 59.389 269.492,59.896 271.602,60.119 272.461 C 60.597 274.309,60.414 275.053,58.962 277.174 C 57.824 278.836,57.031 282.765,57.031 286.747 C 57.031 288.660,57.023 288.672,55.762 288.665 C 48.290 288.627,28.819 289.651,25.230 290.271 C 20.498 291.089,19.531 291.647,19.531 293.560 L 19.531 294.812 23.730 295.643 C 27.019 296.293,29.963 296.518,37.305 296.681 C 42.461 296.795,49.756 296.964,53.516 297.057 C 60.200 297.222,90.527 297.648,152.539 298.450 C 169.512 298.669,185.684 299.010,188.477 299.208 C 191.270 299.405,200.762 299.765,209.570 300.007 C 218.379 300.249,231.035 300.609,237.695 300.805 C 244.355 301.002,257.378 301.331,266.634 301.536 C 275.890 301.740,285.646 302.091,288.314 302.314 C 301.128 303.389,324.877 303.984,330.621 303.375 C 335.122 302.898,336.422 301.211,334.578 298.242 C 333.506 296.516,318.491 294.368,305.967 294.149 C 305.354 294.138,304.622 292.686,303.501 289.258 C 303.009 287.754,302.393 286.260,302.131 285.938 C 301.869 285.615,301.525 284.912,301.367 284.375 C 301.209 283.838,300.866 283.135,300.604 282.813 C 300.343 282.490,299.731 281.436,299.244 280.469 C 298.757 279.502,297.300 277.605,296.005 276.252 C 293.697 273.841,293.656 273.759,293.855 271.994 C 294.291 268.129,292.873 259.344,291.219 255.664 C 290.930 255.020,290.231 253.437,289.667 252.148 C 289.103 250.859,288.441 249.453,288.197 249.023 C 287.952 248.594,287.560 247.891,287.326 247.461 C 287.092 247.031,286.567 246.152,286.159 245.508 C 281.857 238.708,279.847 236.465,274.358 232.339 C 269.988 229.055,269.986 229.289,274.414 225.963 C 284.492 218.392,293.810 207.620,296.871 200.000 C 297.087 199.463,297.429 198.760,297.631 198.438 C 298.066 197.744,299.154 195.245,300.438 191.992 C 301.677 188.853,302.004 180.124,300.986 177.344 C 300.632 176.377,300.167 174.971,299.951 174.219 C 299.736 173.467,299.321 172.324,299.029 171.680 C 298.737 171.035,298.378 170.028,298.232 169.442 C 297.213 165.352,295.568 163.174,290.742 159.525 C 286.229 156.113,283.206 156.628,285.317 160.449 C 295.356 178.622,296.087 183.546,290.464 195.117 C 286.177 203.940,276.546 213.904,268.247 218.103 C 259.369 222.595,243.752 228.351,237.891 229.292 C 236.494 229.516,233.857 230.051,232.031 230.481 C 230.205 230.911,227.052 231.621,225.025 232.060 C 222.998 232.498,221.235 232.921,221.108 232.999 C 220.483 233.385,213.567 234.102,207.813 234.378 C 204.268 234.547,198.048 234.913,193.990 235.190 C 182.176 235.996,170.982 234.964,169.044 232.889 C 167.770 231.525,163.772 223.677,162.436 219.919 C 161.864 218.309,161.264 216.641,161.103 216.211 C 160.942 215.781,160.418 214.199,159.939 212.695 C 156.842 202.979,155.812 200.790,153.861 199.781 C 151.541 198.582,141.380 198.300,122.852 198.922 C 96.694 199.800,95.494 199.656,91.747 195.191 C 82.541 184.221,80.682 170.465,86.519 156.514 C 88.004 152.965,84.431 150.029,81.202 152.146 M215.681 159.304 C 214.865 159.865,215.449 161.191,217.947 164.453 C 219.182 166.064,220.508 167.998,220.895 168.750 C 221.651 170.218,229.004 177.734,229.685 177.734 C 229.910 177.734,230.750 178.164,231.551 178.689 C 234.460 180.595,250.143 182.369,254.268 181.258 C 256.256 180.722,259.748 178.833,260.707 177.774 C 262.666 175.609,262.587 160.602,260.617 160.538 C 260.471 160.534,257.803 160.260,254.688 159.930 C 248.031 159.225,216.531 158.719,215.681 159.304 M107.858 160.071 C 105.731 164.045,108.249 171.026,113.086 174.567 C 114.590 175.668,116.014 176.726,116.250 176.917 C 123.946 183.149,143.609 178.339,153.937 167.698 C 160.030 161.421,159.871 161.263,146.717 160.559 C 138.021 160.094,138.602 159.759,138.527 165.274 C 138.426 172.588,135.442 176.509,130.326 176.052 C 127.135 175.767,126.483 175.000,129.432 175.000 C 132.388 175.000,133.594 173.937,133.594 171.332 C 133.594 164.316,122.894 161.168,121.989 167.918 C 121.667 170.314,121.094 169.446,121.094 166.563 C 121.094 164.822,121.332 163.564,121.857 162.535 C 123.156 159.988,122.765 159.817,114.987 159.515 C 108.469 159.263,108.283 159.278,107.858 160.071 M247.770 162.958 C 255.927 167.067,253.321 179.747,244.336 179.670 C 242.095 179.651,241.144 178.767,242.742 178.189 C 245.191 177.304,245.564 174.071,243.453 172.042 C 239.620 168.360,234.930 168.781,234.472 172.849 L 234.255 174.769 233.735 173.029 C 231.477 165.475,240.258 159.174,247.770 162.958 M123.438 171.097 C 123.438 171.672,125.148 173.333,125.901 173.488 C 126.287 173.568,126.583 173.809,126.558 174.023 C 126.484 174.643,125.248 174.246,124.659 173.414 C 124.365 172.997,123.793 172.656,123.390 172.656 C 122.832 172.656,122.656 172.370,122.656 171.461 C 122.656 170.764,122.819 170.367,123.047 170.508 C 123.262 170.641,123.438 170.906,123.438 171.097 M179.688 172.623 C 169.422 174.057,169.370 183.003,179.593 188.886 C 182.404 190.504,182.813 190.972,182.813 192.580 C 182.813 197.291,176.219 199.635,171.916 196.453 C 170.169 195.161,168.922 196.178,169.933 198.069 C 171.307 200.635,180.355 201.420,183.025 199.204 C 183.463 198.841,183.943 198.883,185.223 199.395 C 190.067 201.333,199.253 199.748,199.536 196.924 C 199.685 195.442,198.665 195.267,196.726 196.440 C 193.796 198.213,186.917 197.801,185.078 195.743 C 182.912 193.319,183.614 191.029,187.059 189.283 C 192.909 186.319,197.367 180.943,196.617 177.758 C 195.762 174.123,187.308 171.559,179.688 172.623 M140.451 204.211 C 150.377 204.611,152.332 205.728,153.944 211.914 C 154.452 213.861,155.498 216.512,158.799 224.219 C 160.226 227.549,162.000 231.855,162.742 233.789 C 163.484 235.723,165.392 240.293,166.983 243.945 C 168.575 247.598,170.522 252.344,171.312 254.492 C 172.102 256.641,173.360 260.068,174.108 262.109 C 176.673 269.111,177.217 270.513,178.451 273.308 C 180.758 278.533,180.379 278.907,172.780 278.904 C 167.445 278.902,137.592 277.536,134.570 277.155 C 128.862 276.436,98.694 275.707,86.328 275.989 C 78.916 276.159,71.999 276.311,70.956 276.328 C 68.785 276.364,67.459 275.179,66.846 272.656 C 66.663 271.904,65.763 268.125,64.846 264.258 C 63.929 260.391,62.519 255.117,61.711 252.539 C 59.228 244.606,57.098 236.578,53.315 220.898 C 51.813 214.669,50.564 206.291,51.029 205.554 C 51.724 204.452,53.249 204.349,68.605 204.365 C 76.874 204.374,83.703 204.318,83.781 204.241 C 84.085 203.940,133.076 203.914,140.451 204.211 M233.130 237.776 C 233.198 238.250,232.627 239.909,231.861 241.463 C 229.637 245.977,230.269 247.899,234.251 248.734 C 237.494 249.415,237.885 249.017,236.672 246.274 C 235.090 242.698,236.655 238.281,239.503 238.281 C 241.173 238.281,241.233 239.002,239.693 240.579 C 238.073 242.239,237.840 243.861,239.009 245.357 C 239.409 245.870,239.851 246.657,239.992 247.106 C 240.533 248.835,241.852 249.525,245.898 250.193 C 257.865 252.169,258.433 252.506,259.859 258.475 C 261.955 267.251,262.084 268.954,261.291 277.323 C 260.873 281.733,260.460 283.158,258.164 288.129 C 257.756 289.012,257.422 289.928,257.422 290.165 C 257.422 292.155,253.220 292.935,246.372 292.217 C 242.614 291.823,242.671 291.887,244.156 289.686 C 244.830 288.688,245.549 287.217,245.754 286.416 C 245.959 285.616,246.368 284.346,246.662 283.594 C 250.537 273.685,251.969 260.852,249.584 257.410 C 246.665 253.198,240.680 250.627,240.010 253.297 C 239.617 254.861,240.350 256.047,242.287 256.985 C 246.049 258.806,246.460 260.445,243.383 261.367 C 240.927 262.103,229.171 261.616,226.563 260.670 C 222.999 259.379,223.533 256.319,227.430 255.696 C 229.223 255.409,231.120 254.418,231.432 253.606 C 233.027 249.448,221.557 252.415,218.970 256.829 C 217.801 258.823,217.440 267.651,218.400 270.725 C 218.632 271.465,219.049 273.037,219.328 274.219 C 221.246 282.337,222.615 287.060,223.538 288.738 C 224.801 291.032,224.385 291.406,220.569 291.406 C 214.802 291.406,213.865 290.896,211.680 286.564 C 208.890 281.031,206.495 280.037,192.188 278.476 C 189.846 278.221,188.116 277.819,187.500 277.388 C 186.545 276.719,180.833 265.871,179.455 262.109 C 179.101 261.143,178.486 259.473,178.088 258.398 C 173.535 246.104,172.841 243.315,174.158 242.611 C 176.011 241.619,201.696 243.719,218.945 246.273 C 228.501 247.687,227.681 247.866,228.286 244.232 C 228.403 243.531,228.954 241.995,229.510 240.819 C 230.066 239.643,230.406 238.495,230.265 238.267 C 229.722 237.390,230.443 236.667,231.736 236.791 C 232.703 236.885,233.037 237.121,233.130 237.776 M233.900 252.089 C 233.547 253.937,234.000 255.388,235.009 255.641 C 236.869 256.108,238.150 254.582,237.825 252.286 C 237.623 250.854,234.169 250.681,233.900 252.089 M237.626 265.416 C 244.221 265.464,245.833 265.582,246.147 266.039 C 246.721 266.874,246.286 275.053,245.594 276.418 C 245.282 277.034,244.899 278.242,244.743 279.102 C 244.588 279.961,244.146 281.367,243.761 282.227 C 243.377 283.086,242.943 284.180,242.797 284.658 C 242.325 286.206,240.429 287.224,238.556 286.934 C 234.777 286.348,232.380 286.267,231.850 286.707 C 227.953 289.941,223.478 283.645,221.648 272.351 C 220.529 265.449,221.019 264.622,225.968 265.051 C 227.906 265.219,233.152 265.383,237.626 265.416 M269.401 268.302 C 269.984 269.515,270.782 270.931,271.175 271.448 C 271.626 272.042,271.795 272.689,271.634 273.206 C 270.628 276.432,266.406 273.701,266.406 269.824 C 266.406 264.911,267.504 264.353,269.401 268.302 M286.934 276.891 C 287.138 277.071,287.920 277.456,288.672 277.746 C 292.528 279.233,292.380 280.989,288.406 280.905 C 284.938 280.831,284.478 280.656,284.181 279.302 C 283.737 277.280,285.563 275.679,286.934 276.891 M279.323 277.982 C 279.985 279.787,278.834 280.469,275.127 280.469 L 271.782 280.469 272.933 279.292 C 274.959 277.219,278.757 276.441,279.323 277.982 M110.352 283.588 C 114.434 283.796,122.256 284.151,127.734 284.376 C 133.213 284.602,142.002 285.052,147.266 285.376 C 152.529 285.699,162.285 286.068,168.945 286.196 C 182.137 286.449,182.422 286.501,182.422 288.685 C 182.422 290.264,181.771 290.568,177.556 290.956 C 170.438 291.610,89.485 290.002,72.329 288.866 C 68.020 288.580,64.195 286.033,65.745 284.479 C 66.760 283.462,96.275 282.872,110.352 283.588 M198.142 283.961 C 203.682 284.948,206.445 287.082,204.588 288.939 C 203.282 290.245,191.085 288.480,190.477 286.897 C 189.113 283.341,190.875 282.666,198.142 283.961 M295.375 285.887 C 296.404 286.278,297.913 288.452,298.461 290.332 C 299.097 292.516,298.539 292.637,289.117 292.359 C 284.468 292.222,277.372 292.084,273.348 292.051 C 266.095 291.993,266.024 291.984,265.053 291.012 C 263.272 289.230,264.770 286.013,267.620 285.501 C 269.965 285.080,294.136 285.416,295.375 285.887 " stroke="none" fill="#151618" fill-rule="evenodd"></path><path id="path1" d="M0.000 195.313 L 0.000 390.625 200.000 390.625 L 400.000 390.625 400.000 195.313 L 400.000 0.000 200.000 0.000 L 0.000 0.000 0.000 195.313 M145.479 61.097 C 147.675 62.265,151.563 65.172,151.563 65.646 C 151.563 65.820,151.871 66.061,152.248 66.180 C 152.625 66.300,154.020 67.432,155.348 68.696 L 157.763 70.994 172.534 71.198 C 182.062 71.330,187.790 71.562,188.672 71.851 C 189.424 72.098,193.077 72.456,196.790 72.646 C 200.668 72.845,204.324 73.238,205.383 73.571 C 206.397 73.889,208.589 74.250,210.255 74.374 C 211.920 74.498,213.919 74.865,214.697 75.190 C 215.475 75.515,216.661 75.789,217.333 75.798 C 218.005 75.808,219.258 76.082,220.117 76.408 C 220.977 76.734,222.618 77.234,223.765 77.520 C 224.913 77.805,226.046 78.234,226.285 78.472 C 226.524 78.711,226.980 78.906,227.299 78.906 C 227.617 78.906,228.593 79.232,229.467 79.629 C 230.340 80.027,232.373 80.834,233.984 81.423 C 235.596 82.012,237.441 82.730,238.086 83.017 C 238.730 83.305,239.697 83.661,240.234 83.808 C 240.771 83.956,241.475 84.306,241.797 84.586 C 243.238 85.839,244.458 85.706,246.900 84.030 C 248.189 83.145,249.457 82.421,249.719 82.419 C 249.981 82.418,250.723 82.130,251.367 81.780 C 252.012 81.429,253.682 80.916,255.078 80.639 C 256.475 80.362,258.320 79.951,259.180 79.725 C 261.149 79.209,264.897 79.210,267.188 79.729 C 268.154 79.947,270.069 80.287,271.442 80.484 C 272.816 80.681,274.313 81.087,274.768 81.386 C 275.224 81.684,276.164 82.053,276.857 82.205 C 277.549 82.358,278.218 82.647,278.343 82.848 C 278.467 83.050,279.128 83.458,279.812 83.755 C 280.495 84.051,281.457 84.708,281.949 85.214 C 283.775 87.092,285.927 89.659,285.932 89.966 C 285.935 90.140,286.398 91.255,286.960 92.444 C 288.234 95.138,288.258 103.593,286.995 104.989 C 286.628 105.394,286.328 106.008,286.328 106.352 C 286.328 107.184,284.210 112.431,283.646 112.995 C 283.402 113.238,283.203 113.607,283.203 113.815 C 283.203 114.022,282.412 115.461,281.445 117.013 C 279.418 120.266,279.163 122.328,280.440 125.133 C 280.854 126.041,281.308 127.306,281.449 127.943 C 281.590 128.580,281.936 129.629,282.218 130.273 C 282.499 130.918,283.125 132.500,283.609 133.789 C 284.461 136.060,285.528 138.544,287.217 142.188 C 287.664 143.154,288.254 144.473,288.526 145.117 C 290.104 148.851,291.090 151.046,291.422 151.563 C 291.629 151.885,291.984 152.588,292.210 153.125 C 292.436 153.662,293.205 155.332,293.919 156.836 C 294.633 158.340,295.692 160.625,296.272 161.914 C 296.853 163.203,297.665 164.897,298.078 165.678 C 298.491 166.459,298.828 167.493,298.828 167.976 C 298.828 168.458,299.158 169.401,299.562 170.071 C 299.965 170.741,300.421 171.992,300.573 172.852 C 300.726 173.711,301.045 174.648,301.281 174.934 C 303.305 177.383,303.139 189.232,301.025 193.164 C 300.679 193.809,300.394 194.705,300.393 195.155 C 300.392 195.606,300.039 196.380,299.609 196.875 C 299.180 197.370,298.828 198.077,298.828 198.445 C 298.828 198.812,298.477 199.560,298.047 200.107 C 297.617 200.653,297.266 201.356,297.266 201.669 C 297.266 201.982,296.958 202.659,296.582 203.173 C 296.206 203.687,295.679 204.501,295.410 204.983 C 295.142 205.465,294.702 206.251,294.434 206.729 C 294.165 207.207,293.242 208.516,292.383 209.637 C 291.523 210.757,290.205 212.516,289.453 213.545 C 287.118 216.740,282.793 221.042,278.516 224.422 C 276.260 226.205,274.023 228.054,273.545 228.531 L 272.677 229.398 274.131 230.535 C 275.999 231.993,278.557 234.185,280.175 235.713 C 282.383 237.799,286.328 243.152,286.328 244.064 C 286.328 244.321,286.508 244.531,286.727 244.531 C 286.947 244.531,287.335 245.015,287.590 245.605 C 287.846 246.196,288.369 247.099,288.754 247.611 C 289.139 248.124,289.453 248.849,289.453 249.224 C 289.453 249.598,289.712 250.119,290.029 250.382 C 290.345 250.645,290.715 251.451,290.851 252.174 C 290.986 252.896,291.338 253.687,291.632 253.932 C 291.926 254.176,292.287 255.013,292.433 255.793 C 292.579 256.573,293.023 257.742,293.418 258.391 C 293.837 259.078,294.138 260.311,294.139 261.344 C 294.140 262.319,294.404 264.129,294.727 265.367 C 295.049 266.604,295.313 268.983,295.313 270.654 C 295.313 273.675,295.320 273.699,296.863 275.224 C 297.716 276.068,298.611 277.229,298.852 277.804 C 299.093 278.379,299.521 278.939,299.804 279.047 C 300.086 279.155,300.433 279.771,300.574 280.415 C 300.716 281.060,301.084 281.796,301.392 282.052 C 301.701 282.308,301.953 282.824,301.953 283.198 C 301.953 283.573,302.305 284.326,302.734 284.872 C 303.164 285.418,303.517 286.101,303.518 286.390 C 303.520 286.678,303.870 287.441,304.297 288.086 C 304.724 288.730,305.077 289.609,305.082 290.039 C 305.105 292.190,309.002 293.239,318.298 293.595 C 321.876 293.733,325.596 293.999,326.563 294.188 C 331.700 295.189,332.558 295.419,333.726 296.108 C 337.672 298.437,337.370 303.906,333.294 303.906 C 332.686 303.906,331.967 304.126,331.698 304.395 C 331.040 305.050,304.584 305.027,300.537 304.368 C 297.960 303.948,274.526 303.068,266.016 303.072 C 263.975 303.073,260.898 302.905,259.180 302.700 C 257.461 302.494,244.893 302.161,231.250 301.959 C 217.607 301.757,203.369 301.406,199.609 301.180 C 195.850 300.954,177.568 300.505,158.984 300.184 C 140.400 299.862,116.055 299.436,104.883 299.237 C 93.711 299.038,75.518 298.779,64.453 298.662 C 51.710 298.527,41.830 298.234,37.500 297.863 C 33.740 297.540,29.082 297.268,27.148 297.258 C 24.503 297.244,23.246 297.052,22.070 296.484 C 21.211 296.069,20.222 295.724,19.872 295.716 C 19.075 295.700,18.496 295.017,18.167 293.705 C 17.467 290.916,22.606 288.688,29.836 288.647 C 32.225 288.634,35.674 288.462,37.500 288.266 C 39.326 288.070,43.633 287.718,47.070 287.484 C 54.107 287.006,54.832 286.739,55.464 284.393 C 55.693 283.542,56.031 282.753,56.215 282.639 C 56.398 282.526,56.670 281.300,56.818 279.916 C 56.991 278.298,57.357 277.088,57.841 276.530 C 58.672 275.572,58.802 273.494,58.193 270.898 C 57.992 270.039,57.489 267.809,57.077 265.942 C 56.664 264.076,56.213 262.366,56.075 262.142 C 55.937 261.918,55.586 260.545,55.296 259.090 C 54.707 256.134,53.841 252.626,52.764 248.828 C 51.572 244.626,51.133 242.897,50.582 240.234 C 50.292 238.838,49.787 236.992,49.459 236.133 C 49.131 235.273,48.855 234.037,48.845 233.385 C 48.836 232.733,48.477 231.199,48.047 229.977 C 47.617 228.754,47.266 227.126,47.266 226.358 C 47.266 225.590,47.014 224.475,46.707 223.882 C 46.400 223.288,46.037 221.671,45.901 220.288 C 45.764 218.905,45.403 217.070,45.099 216.211 C 44.794 215.352,44.383 213.330,44.186 211.719 C 43.989 210.107,43.530 207.998,43.167 207.031 C 41.719 203.182,43.382 198.750,46.484 198.190 C 47.236 198.054,48.326 197.702,48.906 197.409 C 49.742 196.986,53.000 196.875,64.606 196.875 C 73.255 196.875,79.343 196.726,79.476 196.510 C 79.600 196.310,78.926 194.508,77.978 192.506 C 77.031 190.505,76.076 187.813,75.858 186.523 C 75.639 185.234,75.188 183.477,74.856 182.617 C 74.525 181.758,74.247 180.176,74.239 179.102 C 74.231 178.027,74.021 175.039,73.772 172.461 C 73.181 166.358,73.982 159.254,75.616 156.109 C 76.914 153.610,80.680 147.901,81.455 147.258 C 81.772 146.995,82.031 146.591,82.031 146.360 C 82.031 145.821,84.026 142.870,84.667 142.461 C 84.936 142.289,85.156 141.938,85.157 141.680 C 85.157 141.207,86.417 139.536,87.878 138.072 C 88.315 137.635,88.672 137.166,88.672 137.031 C 88.672 136.896,89.015 136.375,89.435 135.873 C 95.050 129.164,100.536 122.322,101.367 120.994 C 101.582 120.650,103.813 117.324,106.325 113.603 C 114.049 102.159,115.602 98.493,114.707 93.818 C 113.720 88.668,113.799 79.005,114.844 77.055 C 115.273 76.253,115.625 75.311,115.625 74.961 C 115.625 74.611,115.977 73.877,116.406 73.331 C 116.836 72.785,117.188 72.208,117.188 72.049 C 117.188 70.815,124.839 63.281,126.093 63.281 C 126.293 63.281,126.876 62.956,127.389 62.560 C 127.901 62.163,128.846 61.709,129.488 61.552 C 130.131 61.395,130.759 61.100,130.884 60.898 C 131.811 59.398,142.560 59.545,145.479 61.097 M169.141 82.276 C 167.529 82.569,164.277 82.974,161.914 83.175 C 157.182 83.577,151.864 84.699,151.109 85.453 C 150.843 85.720,150.440 85.941,150.215 85.946 C 148.981 85.973,139.503 91.239,136.835 93.379 C 129.272 99.450,124.076 105.326,121.311 110.938 C 120.305 112.979,118.790 115.471,117.944 116.476 C 117.098 117.482,116.406 118.376,116.406 118.465 C 116.406 118.803,112.413 125.262,111.400 126.563 C 110.814 127.314,109.635 128.962,108.780 130.224 C 107.926 131.486,106.875 132.899,106.445 133.366 C 106.016 133.832,104.445 135.700,102.956 137.517 C 101.467 139.334,99.445 141.622,98.464 142.601 C 91.658 149.396,91.020 151.025,94.238 153.381 C 101.118 158.418,100.662 158.236,102.449 156.667 C 103.166 156.037,104.210 155.407,104.768 155.267 C 105.743 155.023,105.973 154.644,107.961 150.000 C 108.518 148.698,113.928 140.888,115.659 138.888 C 119.474 134.476,128.464 126.953,129.921 126.953 C 130.070 126.953,131.478 126.334,133.050 125.578 C 144.944 119.857,159.873 119.049,164.828 123.858 C 171.078 129.924,170.843 141.557,164.194 155.273 C 161.163 161.525,163.488 163.799,171.952 162.865 C 176.326 162.382,187.726 162.544,197.656 163.230 C 203.339 163.623,203.906 163.496,203.906 161.826 C 203.906 159.942,206.580 155.549,208.016 155.075 C 210.363 154.301,210.370 154.107,208.329 146.978 C 207.026 142.428,207.831 136.388,210.311 132.114 C 215.635 122.936,234.631 122.670,247.488 131.594 C 248.762 132.478,249.931 133.202,250.085 133.203 C 250.854 133.204,255.528 136.858,258.556 139.823 C 264.329 145.478,267.209 149.866,269.342 156.257 C 269.951 158.079,270.490 159.627,270.540 159.697 C 270.656 159.859,275.845 157.231,278.040 155.899 C 279.945 154.742,279.950 154.610,278.255 150.586 C 277.711 149.297,276.904 147.363,276.460 146.289 C 276.016 145.215,275.078 143.105,274.375 141.602 C 272.460 137.508,271.290 134.507,270.336 131.250 C 269.864 129.639,269.156 127.354,268.761 126.172 C 268.367 124.990,267.654 122.793,267.176 121.289 C 266.314 118.575,264.819 115.639,263.680 114.420 C 263.353 114.070,262.646 113.210,262.109 112.508 C 261.572 111.806,259.375 109.842,257.227 108.144 C 255.078 106.446,252.959 104.724,252.517 104.318 C 251.820 103.677,248.678 101.564,246.279 100.123 C 245.855 99.868,244.189 99.015,242.578 98.227 C 240.967 97.439,238.857 96.377,237.891 95.866 C 236.924 95.355,234.727 94.227,233.008 93.360 C 231.289 92.492,229.619 91.631,229.297 91.445 C 227.322 90.306,217.226 87.147,212.710 86.255 C 211.644 86.044,210.326 85.642,209.781 85.360 C 209.235 85.078,207.559 84.727,206.055 84.580 C 204.551 84.432,202.266 84.064,200.977 83.762 C 199.688 83.460,196.623 83.028,194.167 82.803 C 191.711 82.578,188.987 82.229,188.113 82.027 C 185.748 81.480,172.565 81.654,169.141 82.276 M88.016 157.324 C 87.884 157.700,87.518 158.623,87.204 159.375 C 84.093 166.812,84.178 179.179,87.383 185.742 C 89.933 190.961,93.385 195.793,95.508 197.114 C 97.094 198.102,110.238 198.348,121.484 197.602 C 131.807 196.917,145.132 196.917,150.285 197.602 C 155.191 198.254,156.548 199.109,157.814 202.344 C 158.276 203.525,159.003 205.371,159.430 206.445 C 160.461 209.040,161.969 213.580,162.284 215.039 C 162.522 216.143,162.839 217.034,164.956 222.552 C 166.003 225.281,168.268 229.326,170.163 231.850 C 170.949 232.896,171.196 232.966,175.046 233.224 C 177.277 233.374,180.545 233.723,182.309 234.001 C 184.900 234.408,186.366 234.412,189.926 234.020 C 192.352 233.753,198.643 233.385,203.907 233.203 C 209.812 232.997,214.449 232.647,216.016 232.287 C 217.412 231.967,219.785 231.514,221.289 231.282 C 224.712 230.753,230.288 229.521,231.836 228.951 C 232.480 228.714,234.063 228.362,235.352 228.169 C 238.601 227.682,245.004 226.195,245.494 225.813 C 245.716 225.640,246.426 225.378,247.070 225.231 C 248.590 224.884,251.822 223.624,255.360 221.999 C 256.911 221.286,258.320 220.703,258.491 220.703 C 258.661 220.703,259.413 220.376,260.162 219.977 C 260.911 219.577,261.963 219.117,262.500 218.953 C 263.774 218.567,266.831 217.263,267.578 216.789 C 267.900 216.584,268.664 216.137,269.276 215.796 C 273.334 213.531,280.452 207.450,283.231 203.873 C 283.968 202.924,284.658 202.061,284.766 201.953 C 285.448 201.274,288.275 196.720,289.132 194.922 C 294.442 183.777,293.553 177.882,284.141 161.838 C 283.127 160.110,282.385 160.038,279.102 161.353 C 273.063 163.771,269.019 166.531,268.527 168.571 C 268.374 169.207,267.902 170.418,267.478 171.264 C 266.923 172.370,266.558 174.440,266.174 178.646 C 265.348 187.704,265.885 187.182,257.347 187.208 C 250.979 187.226,248.632 187.054,244.458 186.263 C 242.300 185.853,237.886 186.113,237.895 186.649 C 237.922 188.117,243.502 189.326,244.531 188.086 C 244.799 187.764,245.502 187.500,246.094 187.500 C 246.686 187.500,247.389 187.764,247.656 188.086 C 247.996 188.496,248.898 188.672,250.653 188.672 C 254.935 188.672,256.799 190.360,254.719 192.352 C 253.720 193.309,253.456 193.359,249.387 193.359 C 245.852 193.359,244.852 193.496,243.648 194.141 C 241.633 195.220,240.184 195.143,239.033 193.895 C 237.787 192.544,235.962 191.797,233.899 191.795 C 230.282 191.791,228.701 188.254,231.941 187.414 C 235.491 186.494,232.974 185.498,226.172 185.130 C 212.311 184.381,205.698 183.495,204.259 182.192 C 203.593 181.589,203.516 180.927,203.516 175.795 C 203.516 171.565,203.376 169.880,202.980 169.339 C 201.713 167.606,165.851 167.261,164.433 168.969 C 164.154 169.305,164.155 170.465,164.436 172.706 C 165.033 177.466,164.956 181.853,164.251 183.216 C 163.103 185.436,163.234 185.421,141.602 185.707 C 121.363 185.974,118.761 186.105,119.474 186.818 C 119.711 187.055,123.566 187.228,129.249 187.257 C 139.651 187.310,139.433 187.254,139.734 189.923 C 140.008 192.357,139.323 192.858,136.607 192.210 C 134.604 191.731,127.947 191.829,123.107 192.409 C 120.426 192.729,117.958 192.041,116.562 190.584 C 115.576 189.555,115.241 189.453,112.833 189.453 L 110.186 189.453 109.777 187.935 C 109.414 186.583,109.132 186.320,107.218 185.543 C 103.417 184.001,103.290 183.688,102.973 175.066 C 102.604 165.067,102.476 164.673,98.928 162.695 C 97.387 161.836,94.718 160.122,92.997 158.887 C 89.763 156.564,88.431 156.147,88.016 157.324 M209.734 160.389 C 209.179 161.059,208.668 167.064,208.621 173.475 C 208.581 178.927,208.972 179.108,221.484 179.435 C 228.235 179.611,229.755 179.304,227.875 178.143 C 225.964 176.963,221.224 171.826,219.026 168.555 C 214.401 161.671,213.470 160.451,212.587 160.115 C 211.231 159.600,210.317 159.687,209.734 160.389 M125.453 160.563 C 124.571 160.925,123.087 162.413,123.060 162.962 C 123.053 163.108,124.361 163.223,125.966 163.216 C 130.842 163.197,134.311 165.970,135.355 170.719 C 135.634 171.989,135.672 172.016,135.985 171.172 C 137.596 166.821,137.691 163.100,136.238 161.262 C 135.640 160.504,126.963 159.942,125.453 160.563 M240.593 163.748 C 236.830 164.536,234.038 168.154,237.305 168.010 C 241.709 167.815,246.892 172.291,246.331 175.804 C 245.816 179.022,249.890 176.388,251.351 172.559 C 252.682 169.070,249.679 164.645,245.350 163.716 C 243.077 163.229,243.073 163.229,240.593 163.748 M155.209 168.585 C 152.840 170.977,149.539 173.571,146.800 175.194 C 144.589 176.506,140.478 178.516,140.008 178.516 C 139.677 178.516,139.453 178.909,139.453 179.492 L 139.453 180.469 148.768 180.469 C 160.566 180.469,159.603 181.197,159.091 172.654 C 158.633 165.030,158.681 165.080,155.209 168.585 M190.821 171.958 C 191.465 172.285,192.646 172.670,193.446 172.815 C 201.909 174.347,198.515 185.130,187.891 190.466 C 185.053 191.892,184.640 193.438,186.547 195.497 C 187.819 196.869,194.169 196.994,195.840 195.680 C 198.199 193.823,200.781 194.474,200.781 196.925 C 200.781 200.450,193.260 202.364,185.695 200.764 C 183.461 200.292,183.199 200.314,181.679 201.106 C 179.455 202.266,174.862 202.299,172.758 201.172 C 171.957 200.742,171.097 200.391,170.847 200.391 C 170.177 200.391,167.969 197.740,167.969 196.936 C 167.969 194.833,170.686 193.917,172.487 195.413 C 173.888 196.575,175.706 196.964,178.199 196.633 C 181.288 196.223,182.707 192.014,180.138 190.879 C 170.568 186.649,166.979 175.043,174.503 172.653 C 175.099 172.464,176.289 172.032,177.148 171.692 C 179.242 170.865,189.041 171.055,190.821 171.958 M108.347 173.626 C 108.212 173.978,108.191 175.516,108.300 177.045 C 108.554 180.594,108.897 180.867,113.063 180.837 C 115.975 180.816,120.445 180.225,118.460 180.123 C 117.979 180.098,117.365 179.727,117.097 179.297 C 116.829 178.867,116.441 178.516,116.236 178.516 C 115.711 178.516,113.065 176.707,110.644 174.692 C 108.946 173.280,108.550 173.096,108.347 173.626 M122.531 205.906 C 120.741 206.947,57.837 207.046,54.336 206.014 C 52.327 205.422,52.205 208.826,54.045 214.174 C 54.398 215.202,54.688 216.834,54.688 217.801 C 54.688 218.768,54.971 219.992,55.318 220.522 C 55.665 221.051,56.041 222.627,56.153 224.024 C 56.265 225.420,56.491 226.563,56.656 226.563 C 57.183 226.563,57.813 228.962,57.812 230.972 C 57.812 232.345,58.006 233.063,58.467 233.401 C 58.923 233.734,59.174 234.638,59.293 236.373 C 59.389 237.763,59.715 239.152,60.030 239.510 C 60.341 239.864,60.695 241.183,60.818 242.440 C 60.940 243.698,61.259 244.990,61.525 245.313 C 61.792 245.635,62.233 246.865,62.506 248.047 C 62.779 249.229,63.241 250.542,63.532 250.966 C 63.824 251.390,64.064 252.269,64.065 252.919 C 64.066 253.569,64.334 254.613,64.660 255.238 C 64.986 255.863,65.401 257.620,65.582 259.144 C 65.764 260.668,66.180 262.969,66.509 264.258 C 66.837 265.547,67.501 268.319,67.986 270.417 C 68.912 274.433,69.535 275.166,71.386 274.416 C 73.136 273.708,104.666 272.793,106.224 273.406 C 106.776 273.623,113.730 273.988,121.680 274.218 C 129.629 274.448,137.100 274.821,138.281 275.048 C 140.668 275.506,175.828 276.387,176.803 276.013 C 177.347 275.804,177.329 275.625,176.641 274.460 C 176.214 273.736,175.747 272.606,175.602 271.950 C 175.458 271.294,175.093 270.552,174.790 270.300 C 174.487 270.049,174.127 269.202,173.990 268.418 C 173.853 267.634,173.524 266.641,173.259 266.211 C 172.995 265.781,172.285 263.848,171.682 261.914 C 171.079 259.980,170.364 258.135,170.092 257.813 C 169.820 257.490,169.469 256.523,169.312 255.664 C 169.156 254.805,168.701 253.682,168.303 253.170 C 167.904 252.658,167.578 251.666,167.578 250.966 C 167.578 250.216,167.346 249.604,167.014 249.476 C 166.703 249.357,166.326 248.591,166.176 247.774 C 166.025 246.957,165.576 245.870,165.178 245.357 C 164.779 244.845,164.453 244.120,164.453 243.745 C 164.453 243.371,164.196 242.851,163.882 242.591 C 163.568 242.330,163.193 241.737,163.047 241.273 C 162.902 240.809,162.456 240.010,162.056 239.498 C 161.656 238.986,161.328 238.047,161.328 237.411 C 161.328 236.776,160.977 235.809,160.547 235.263 C 160.043 234.623,159.766 233.678,159.766 232.606 C 159.766 231.516,159.571 230.868,159.201 230.726 C 158.891 230.607,158.513 229.850,158.362 229.043 C 158.210 228.237,157.761 227.227,157.364 226.801 C 156.966 226.374,156.641 225.549,156.641 224.968 C 156.641 224.387,156.386 223.814,156.075 223.695 C 155.764 223.575,155.308 222.722,155.060 221.797 C 154.813 220.873,154.429 219.896,154.207 219.625 C 153.986 219.354,153.651 218.313,153.464 217.311 C 153.276 216.309,152.884 215.212,152.591 214.874 C 152.298 214.535,151.955 213.577,151.827 212.745 C 151.700 211.912,151.325 210.932,150.993 210.565 C 150.662 210.199,150.391 209.617,150.391 209.273 C 150.391 208.928,150.039 208.535,149.609 208.398 C 149.180 208.262,148.828 207.936,148.828 207.674 C 148.828 207.334,146.838 207.060,141.914 206.723 C 138.111 206.463,134.824 206.074,134.609 205.859 C 134.082 205.332,123.447 205.373,122.531 205.906 M116.992 234.132 C 120.782 235.919,122.553 239.675,121.354 243.385 C 120.996 244.495,120.703 245.640,120.703 245.930 C 120.703 250.189,105.476 257.564,101.210 255.371 C 100.478 254.995,99.505 254.688,99.046 254.688 C 96.513 254.688,90.843 249.820,88.965 246.033 C 86.880 241.830,88.006 236.734,91.411 234.962 C 94.089 233.568,99.952 234.332,101.741 236.309 C 102.124 236.733,103.122 237.436,103.957 237.872 L 105.477 238.664 107.067 237.074 C 110.403 233.738,113.936 232.691,116.992 234.132 M175.391 245.064 C 175.391 245.851,175.563 246.800,175.773 247.173 C 175.984 247.546,176.970 250.312,177.964 253.320 C 180.068 259.687,181.823 264.102,183.630 267.578 C 183.798 267.900,184.812 269.948,185.884 272.128 C 188.201 276.840,187.928 276.694,195.898 277.501 C 198.906 277.805,201.862 278.246,202.467 278.480 C 203.072 278.715,203.951 278.907,204.420 278.908 C 207.988 278.918,211.108 281.603,213.640 286.844 C 214.713 289.064,215.509 289.453,218.983 289.453 C 222.004 289.453,222.286 289.079,221.269 286.416 C 220.883 285.406,220.349 283.611,220.083 282.427 C 219.816 281.242,219.141 278.691,218.582 276.758 C 215.647 266.604,216.331 254.851,219.923 253.711 C 220.352 253.574,220.703 253.306,220.703 253.114 C 220.703 252.923,221.450 252.563,222.363 252.314 C 223.276 252.066,224.551 251.614,225.195 251.311 C 225.840 251.008,227.598 250.630,229.102 250.473 L 231.836 250.186 230.739 249.076 C 229.693 248.018,229.608 247.997,228.899 248.639 C 228.362 249.125,227.799 249.244,226.871 249.067 C 226.164 248.932,224.180 248.634,222.461 248.406 C 220.742 248.178,218.193 247.745,216.797 247.444 C 215.400 247.143,212.336 246.707,209.988 246.475 C 207.640 246.243,205.555 245.952,205.354 245.828 C 205.154 245.704,199.868 245.280,193.608 244.886 C 187.348 244.492,180.688 244.049,178.809 243.902 L 175.391 243.634 175.391 245.064 M247.266 252.930 C 246.869 253.407,246.890 253.516,247.377 253.516 C 249.399 253.516,252.983 261.321,252.185 263.985 C 252.075 264.350,251.795 266.582,251.561 268.945 C 251.132 273.282,250.698 275.035,248.029 283.203 C 245.469 291.038,245.306 290.610,250.861 290.619 C 254.790 290.625,256.641 290.146,256.641 289.123 C 256.641 288.796,256.979 287.813,257.392 286.940 C 259.838 281.767,261.033 265.722,259.270 261.719 C 258.939 260.967,258.538 259.473,258.378 258.398 C 257.850 254.839,256.548 253.783,251.595 252.899 C 247.842 252.230,247.846 252.230,247.266 252.930 M222.787 266.630 C 222.374 267.706,222.945 273.969,223.594 275.476 C 223.937 276.274,224.219 277.332,224.219 277.825 C 224.219 278.319,224.570 279.378,225.000 280.180 C 225.430 280.982,225.781 281.849,225.781 282.106 C 225.781 282.364,226.231 283.224,226.780 284.016 L 227.779 285.458 234.229 285.427 L 240.678 285.397 241.379 284.398 C 241.764 283.848,242.297 282.476,242.563 281.348 C 242.829 280.220,243.194 279.297,243.374 279.297 C 243.555 279.297,243.821 278.462,243.966 277.441 C 244.112 276.421,244.481 275.042,244.787 274.378 C 245.093 273.714,245.380 271.868,245.425 270.277 L 245.508 267.383 236.719 267.122 C 231.885 266.979,227.435 266.671,226.830 266.439 C 225.181 265.804,223.065 265.904,222.787 266.630 M267.578 269.981 C 267.578 271.069,268.560 272.650,269.238 272.653 C 270.232 272.658,270.080 272.034,268.750 270.642 C 268.030 269.889,267.578 269.634,267.578 269.981 M271.680 287.917 C 271.035 288.126,269.717 288.249,268.750 288.191 C 267.187 288.098,266.978 288.183,266.867 288.965 L 266.743 289.844 280.859 289.844 L 294.976 289.844 294.851 289.003 C 294.722 288.129,280.818 287.293,275.684 287.851 C 275.415 287.880,274.668 287.821,274.023 287.720 C 273.379 287.620,272.324 287.708,271.680 287.917 " stroke="none" fill="#fbfbfb" fill-rule="evenodd"></path><path id="path2" d="M82.689 146.939 C 81.557 147.783,77.734 152.946,77.734 153.631 C 77.734 153.843,77.483 154.211,77.177 154.449 C 76.557 154.931,76.194 156.481,76.675 156.592 C 76.844 156.631,77.552 155.916,78.249 155.003 C 81.489 150.754,84.609 150.222,86.559 153.585 C 86.754 153.921,87.969 154.864,89.258 155.680 C 90.547 156.496,92.920 158.142,94.531 159.338 C 96.143 160.533,98.500 162.049,99.771 162.705 C 102.856 164.299,103.046 164.918,103.378 174.502 C 103.759 185.530,104.234 185.913,116.778 185.319 C 120.763 185.130,132.373 184.973,142.578 184.969 C 166.286 184.959,164.658 185.704,164.032 175.149 C 163.624 168.281,163.665 168.081,165.549 167.719 C 168.189 167.213,194.813 167.382,199.108 167.933 C 204.278 168.595,204.133 168.389,203.973 174.851 C 203.832 180.511,203.976 181.442,205.084 182.034 C 207.324 183.233,215.142 184.141,228.516 184.755 C 232.920 184.957,238.896 185.297,241.797 185.510 C 244.697 185.724,250.045 186.091,253.680 186.327 C 257.315 186.562,260.431 186.842,260.604 186.950 C 261.272 187.362,264.087 186.263,264.680 185.359 C 265.241 184.502,265.529 181.974,266.193 172.070 C 266.250 171.211,266.322 170.225,266.352 169.880 C 266.560 167.474,272.760 163.157,279.492 160.732 C 280.566 160.344,281.885 159.653,282.422 159.194 C 284.902 157.078,286.647 156.849,288.895 158.345 C 291.988 160.404,292.406 160.713,293.631 161.847 L 294.879 163.002 295.131 161.998 C 295.433 160.796,295.076 159.514,294.087 158.248 C 293.687 157.736,293.359 157.111,293.359 156.860 C 293.359 156.282,290.907 153.884,290.188 153.758 C 289.891 153.706,289.033 153.275,288.281 152.800 C 285.603 151.109,284.017 151.310,281.562 153.653 C 278.705 156.378,270.925 160.737,268.462 160.992 C 267.310 161.112,267.119 160.969,266.314 159.379 C 265.047 156.880,263.863 156.354,258.391 155.864 C 255.817 155.633,251.865 155.243,249.609 154.996 C 241.599 154.122,211.894 154.239,209.296 155.155 C 206.818 156.029,204.805 158.919,204.315 162.305 L 204.089 163.867 201.166 163.774 C 199.558 163.723,194.199 163.504,189.258 163.288 C 183.266 163.026,178.192 163.025,174.023 163.285 C 165.234 163.832,163.570 163.534,163.085 161.324 C 162.495 158.638,160.881 157.209,158.322 157.108 C 157.033 157.057,154.765 156.849,153.282 156.645 C 151.799 156.442,144.082 156.094,136.133 155.872 C 128.184 155.650,119.570 155.291,116.992 155.075 C 107.994 154.319,104.849 154.807,102.470 157.328 C 101.160 158.716,100.075 158.607,98.377 156.918 C 98.088 156.630,96.829 155.742,95.579 154.943 C 94.329 154.145,92.299 152.471,91.068 151.224 C 89.367 149.503,84.454 146.011,83.866 146.106 C 83.824 146.113,83.294 146.488,82.689 146.939 M215.234 159.305 C 217.553 158.978,248.284 159.295,252.148 159.687 C 263.013 160.787,262.112 160.221,262.102 165.946 C 262.099 168.240,261.900 171.699,261.660 173.633 C 261.421 175.566,261.204 178.165,261.179 179.408 C 261.115 182.547,260.242 182.959,255.781 181.956 C 254.642 181.700,253.535 181.542,253.320 181.604 C 252.506 181.840,237.608 180.747,235.742 180.315 C 234.636 180.058,232.857 179.970,231.641 180.112 C 230.459 180.250,228.086 180.220,226.367 180.047 C 224.648 179.873,221.572 179.730,219.531 179.729 C 207.784 179.723,208.086 180.008,208.270 169.072 C 208.433 159.453,208.868 158.631,213.477 159.235 C 214.121 159.319,214.912 159.351,215.234 159.305 M127.539 159.955 C 147.789 160.463,155.538 160.920,156.980 161.691 C 158.460 162.484,158.904 164.112,159.567 171.199 C 160.224 178.213,160.175 179.222,159.126 180.271 C 158.379 181.018,143.484 181.101,133.398 180.414 C 127.689 180.025,126.013 180.052,121.446 180.606 C 115.498 181.327,110.694 181.435,109.236 180.881 C 108.034 180.424,107.905 179.451,107.608 168.651 C 107.325 158.337,106.636 159.188,114.987 159.532 C 118.668 159.684,124.316 159.874,127.539 159.955 " stroke="none" fill="#4c93f8" fill-rule="evenodd"></path><path id="path3" d="M132.841 60.164 C 131.890 60.365,131.009 60.695,130.884 60.898 C 130.759 61.100,130.131 61.395,129.488 61.552 C 128.846 61.709,127.901 62.163,127.389 62.560 C 126.876 62.956,126.293 63.281,126.093 63.281 C 124.839 63.281,117.188 70.815,117.188 72.049 C 117.188 72.208,116.836 72.785,116.406 73.331 C 115.977 73.877,115.625 74.611,115.625 74.961 C 115.625 75.311,115.273 76.253,114.844 77.055 C 113.799 79.005,113.720 88.668,114.707 93.818 C 115.602 98.493,114.049 102.159,106.325 113.603 C 103.813 117.324,101.582 120.650,101.367 120.994 C 100.536 122.322,95.050 129.164,89.435 135.873 C 89.015 136.375,88.672 136.896,88.672 137.031 C 88.672 137.166,88.315 137.635,87.878 138.072 C 86.417 139.536,85.157 141.207,85.157 141.680 C 85.156 141.938,84.936 142.289,84.667 142.461 C 84.026 142.870,82.031 145.821,82.031 146.360 C 82.031 146.591,81.772 146.995,81.455 147.258 C 80.680 147.901,76.914 153.610,75.616 156.109 C 73.982 159.254,73.181 166.358,73.772 172.461 C 74.021 175.039,74.231 178.027,74.239 179.102 C 74.247 180.176,74.525 181.758,74.856 182.617 C 75.188 183.477,75.639 185.234,75.858 186.523 C 76.076 187.813,77.031 190.505,77.978 192.506 C 78.926 194.508,79.600 196.310,79.476 196.510 C 79.343 196.726,73.255 196.875,64.606 196.875 C 53.000 196.875,49.742 196.986,48.906 197.409 C 48.326 197.702,47.236 198.054,46.484 198.190 C 43.382 198.750,41.719 203.182,43.167 207.031 C 43.530 207.998,43.989 210.107,44.186 211.719 C 44.383 213.330,44.794 215.352,45.099 216.211 C 45.403 217.070,45.764 218.905,45.901 220.288 C 46.037 221.671,46.400 223.288,46.707 223.882 C 47.014 224.475,47.266 225.590,47.266 226.358 C 47.266 227.126,47.617 228.754,48.047 229.977 C 48.477 231.199,48.836 232.733,48.845 233.385 C 48.855 234.037,49.131 235.273,49.459 236.133 C 49.787 236.992,50.292 238.838,50.582 240.234 C 51.133 242.897,51.572 244.626,52.764 248.828 C 53.841 252.626,54.707 256.134,55.296 259.090 C 55.586 260.545,55.937 261.918,56.075 262.142 C 56.213 262.366,56.664 264.076,57.077 265.942 C 57.489 267.809,57.992 270.039,58.193 270.898 C 58.802 273.494,58.672 275.572,57.841 276.530 C 57.357 277.088,56.991 278.298,56.818 279.916 C 56.670 281.300,56.398 282.526,56.215 282.639 C 56.031 282.753,55.693 283.542,55.464 284.393 C 54.832 286.739,54.107 287.006,47.070 287.484 C 43.633 287.718,39.326 288.070,37.500 288.266 C 35.674 288.462,32.225 288.634,29.836 288.647 C 22.606 288.688,17.467 290.916,18.167 293.705 C 18.496 295.017,19.075 295.700,19.872 295.716 C 20.222 295.724,21.211 296.069,22.070 296.484 C 23.246 297.052,24.503 297.244,27.148 297.258 C 29.082 297.268,33.740 297.540,37.500 297.863 C 41.830 298.234,51.710 298.527,64.453 298.662 C 75.518 298.779,93.711 299.038,104.883 299.237 C 116.055 299.436,140.400 299.862,158.984 300.184 C 177.568 300.505,195.850 300.954,199.609 301.180 C 203.369 301.406,217.607 301.757,231.250 301.959 C 244.893 302.161,257.461 302.494,259.180 302.700 C 260.898 302.905,263.975 303.073,266.016 303.072 C 274.526 303.068,297.960 303.948,300.537 304.368 C 304.584 305.027,331.040 305.050,331.698 304.395 C 331.967 304.126,332.686 303.906,333.294 303.906 C 337.370 303.906,337.672 298.437,333.726 296.108 C 332.558 295.419,331.700 295.189,326.563 294.188 C 325.596 293.999,321.876 293.733,318.298 293.595 C 309.002 293.239,305.105 292.190,305.082 290.039 C 305.077 289.609,304.724 288.730,304.297 288.086 C 303.870 287.441,303.520 286.678,303.518 286.390 C 303.517 286.101,303.164 285.418,302.734 284.872 C 302.305 284.326,301.953 283.573,301.953 283.198 C 301.953 282.824,301.701 282.308,301.392 282.052 C 301.084 281.796,300.716 281.060,300.574 280.415 C 300.433 279.771,300.086 279.155,299.804 279.047 C 299.521 278.939,299.093 278.379,298.852 277.804 C 298.611 277.229,297.716 276.068,296.863 275.224 C 295.320 273.699,295.313 273.675,295.313 270.654 C 295.313 268.983,295.049 266.604,294.727 265.367 C 294.404 264.129,294.140 262.319,294.139 261.344 C 294.138 260.311,293.837 259.078,293.418 258.391 C 293.023 257.742,292.579 256.573,292.433 255.793 C 292.287 255.013,291.926 254.176,291.632 253.932 C 291.338 253.687,290.986 252.896,290.851 252.174 C 290.715 251.451,290.345 250.645,290.029 250.382 C 289.712 250.119,289.453 249.598,289.453 249.224 C 289.453 248.849,289.139 248.124,288.754 247.611 C 288.369 247.099,287.846 246.196,287.590 245.605 C 287.335 245.015,286.947 244.531,286.727 244.531 C 286.508 244.531,286.328 244.321,286.328 244.064 C 286.328 243.152,282.383 237.799,280.175 235.713 C 278.557 234.185,275.999 231.993,274.131 230.535 L 272.677 229.398 273.545 228.531 C 274.023 228.054,276.260 226.205,278.516 224.422 C 282.793 221.042,287.118 216.740,289.453 213.545 C 290.205 212.516,291.523 210.757,292.383 209.637 C 293.242 208.516,294.165 207.207,294.434 206.729 C 294.702 206.251,295.142 205.465,295.410 204.983 C 295.679 204.501,296.206 203.687,296.582 203.173 C 296.958 202.659,297.266 201.982,297.266 201.669 C 297.266 201.356,297.617 200.653,298.047 200.107 C 298.477 199.560,298.828 198.812,298.828 198.445 C 298.828 198.077,299.180 197.370,299.609 196.875 C 300.039 196.380,300.392 195.606,300.393 195.155 C 300.394 194.705,300.679 193.809,301.025 193.164 C 303.139 189.232,303.305 177.383,301.281 174.934 C 301.045 174.648,300.726 173.711,300.573 172.852 C 300.421 171.992,299.965 170.741,299.562 170.071 C 299.158 169.401,298.828 168.458,298.828 167.976 C 298.828 167.493,298.491 166.459,298.078 165.678 C 297.665 164.897,296.853 163.203,296.272 161.914 C 295.692 160.625,294.633 158.340,293.919 156.836 C 293.205 155.332,292.436 153.662,292.210 153.125 C 291.984 152.588,291.629 151.885,291.422 151.563 C 291.090 151.046,290.104 148.851,288.526 145.117 C 288.254 144.473,287.664 143.154,287.217 142.188 C 285.528 138.544,284.461 136.060,283.609 133.789 C 283.125 132.500,282.499 130.918,282.218 130.273 C 281.936 129.629,281.590 128.580,281.449 127.943 C 281.308 127.306,280.854 126.041,280.440 125.133 C 279.163 122.328,279.418 120.266,281.445 117.013 C 282.412 115.461,283.203 114.022,283.203 113.815 C 283.203 113.607,283.402 113.238,283.646 112.995 C 284.210 112.431,286.328 107.184,286.328 106.352 C 286.328 106.008,286.628 105.394,286.995 104.989 C 288.258 103.593,288.234 95.138,286.960 92.444 C 286.398 91.255,285.935 90.140,285.932 89.966 C 285.927 89.659,283.775 87.092,281.949 85.214 C 281.457 84.708,280.495 84.051,279.812 83.755 C 279.128 83.458,278.467 83.050,278.343 82.848 C 278.218 82.647,277.549 82.358,276.857 82.205 C 276.164 82.053,275.224 81.684,274.768 81.386 C 274.313 81.087,272.816 80.681,271.442 80.484 C 270.069 80.287,268.154 79.947,267.188 79.729 C 264.897 79.210,261.149 79.209,259.180 79.725 C 258.320 79.951,256.475 80.362,255.078 80.639 C 253.682 80.916,252.012 81.429,251.367 81.780 C 250.723 82.130,249.981 82.418,249.719 82.419 C 249.457 82.421,248.189 83.145,246.900 84.030 C 244.458 85.706,243.238 85.839,241.797 84.586 C 241.475 84.306,240.771 83.956,240.234 83.808 C 239.697 83.661,238.730 83.305,238.086 83.017 C 237.441 82.730,235.596 82.012,233.984 81.423 C 232.373 80.834,230.340 80.027,229.467 79.629 C 228.593 79.232,227.617 78.906,227.299 78.906 C 226.980 78.906,226.524 78.711,226.285 78.472 C 226.046 78.234,224.913 77.805,223.765 77.520 C 222.618 77.234,220.977 76.734,220.117 76.408 C 219.258 76.082,218.005 75.808,217.333 75.798 C 216.661 75.789,215.475 75.515,214.697 75.190 C 213.919 74.865,211.920 74.498,210.255 74.374 C 208.589 74.250,206.397 73.889,205.383 73.571 C 204.324 73.238,200.668 72.845,196.790 72.646 C 193.077 72.456,189.424 72.098,188.672 71.851 C 187.790 71.562,182.062 71.330,172.534 71.198 L 157.763 70.994 155.348 68.696 C 154.020 67.432,152.625 66.300,152.248 66.180 C 151.871 66.061,151.563 65.820,151.563 65.646 C 151.563 65.172,147.675 62.265,145.479 61.097 C 143.321 59.950,136.302 59.431,132.841 60.164 M143.750 61.829 C 146.245 62.613,148.329 63.783,148.945 64.746 C 149.117 65.015,149.454 65.234,149.694 65.234 C 149.934 65.234,151.886 67.015,154.033 69.192 L 157.936 73.150 162.659 72.806 C 171.999 72.124,190.316 72.668,198.047 73.856 C 199.443 74.070,202.871 74.489,205.664 74.786 C 208.457 75.084,211.193 75.500,211.744 75.712 C 212.295 75.924,213.789 76.225,215.064 76.380 C 216.340 76.536,217.998 76.899,218.750 77.188 C 219.502 77.476,220.820 77.876,221.680 78.077 C 223.175 78.426,226.723 79.758,228.274 80.553 C 228.679 80.761,230.700 81.539,232.766 82.282 C 234.833 83.026,238.107 84.416,240.042 85.372 C 244.168 87.409,245.106 87.496,246.755 85.990 C 248.385 84.501,250.243 83.405,252.148 82.809 C 253.008 82.540,253.890 82.179,254.110 82.007 C 255.908 80.594,270.131 80.615,273.342 82.035 C 274.309 82.463,275.353 82.813,275.664 82.813 C 277.458 82.813,281.890 86.262,284.006 89.306 C 287.735 94.671,287.816 102.016,284.221 108.789 C 283.878 109.434,283.597 110.098,283.596 110.266 C 283.595 110.433,282.602 112.191,281.390 114.172 C 278.753 118.481,277.703 121.188,278.115 122.617 C 278.277 123.176,278.882 124.863,279.460 126.367 C 280.039 127.871,280.963 130.332,281.514 131.836 C 282.650 134.936,283.993 138.179,285.561 141.602 C 287.926 146.767,290.205 152.190,290.314 152.915 C 290.378 153.336,291.009 154.197,291.718 154.827 C 292.426 155.457,293.266 156.518,293.584 157.186 C 293.901 157.853,294.426 158.838,294.750 159.375 C 295.128 160.002,295.263 160.869,295.129 161.796 C 294.973 162.868,295.079 163.331,295.541 163.589 C 296.146 163.928,297.699 167.305,298.232 169.442 C 298.378 170.028,298.737 171.035,299.029 171.680 C 299.321 172.324,299.736 173.467,299.951 174.219 C 300.167 174.971,300.632 176.377,300.986 177.344 C 302.004 180.124,301.677 188.853,300.438 191.992 C 299.154 195.245,298.066 197.744,297.631 198.438 C 297.429 198.760,297.087 199.463,296.871 200.000 C 293.810 207.620,284.492 218.392,274.414 225.963 C 269.986 229.289,269.988 229.055,274.358 232.339 C 279.847 236.465,281.857 238.708,286.159 245.508 C 286.567 246.152,287.092 247.031,287.326 247.461 C 287.560 247.891,287.952 248.594,288.197 249.023 C 288.441 249.453,289.103 250.859,289.667 252.148 C 290.231 253.437,290.930 255.020,291.219 255.664 C 292.873 259.344,294.291 268.129,293.855 271.994 C 293.656 273.759,293.697 273.841,296.005 276.252 C 297.300 277.605,298.757 279.502,299.244 280.469 C 299.731 281.436,300.343 282.490,300.604 282.813 C 300.866 283.135,301.209 283.838,301.367 284.375 C 301.525 284.912,301.869 285.615,302.131 285.938 C 302.393 286.260,303.009 287.754,303.501 289.258 C 304.622 292.686,305.354 294.138,305.967 294.149 C 318.491 294.368,333.506 296.516,334.578 298.242 C 336.422 301.211,335.122 302.898,330.621 303.375 C 324.877 303.984,301.128 303.389,288.314 302.314 C 285.646 302.091,275.890 301.740,266.634 301.536 C 257.378 301.331,244.355 301.002,237.695 300.805 C 231.035 300.609,218.379 300.249,209.570 300.007 C 200.762 299.765,191.270 299.405,188.477 299.208 C 185.684 299.010,169.512 298.669,152.539 298.450 C 90.527 297.648,60.200 297.222,53.516 297.057 C 49.756 296.964,42.461 296.795,37.305 296.681 C 29.963 296.518,27.019 296.293,23.730 295.643 L 19.531 294.812 19.531 293.560 C 19.531 291.647,20.498 291.089,25.230 290.271 C 28.819 289.651,48.290 288.627,55.762 288.665 C 57.023 288.672,57.031 288.660,57.031 286.747 C 57.031 282.765,57.824 278.836,58.962 277.174 C 60.414 275.053,60.597 274.309,60.119 272.461 C 59.896 271.602,59.389 269.492,58.990 267.773 C 58.032 263.635,57.316 260.771,56.062 256.055 C 55.491 253.906,54.855 251.445,54.648 250.586 C 54.441 249.727,53.936 247.969,53.526 246.680 C 52.609 243.802,51.302 238.623,50.965 236.537 C 50.827 235.685,50.466 234.507,50.162 233.920 C 49.858 233.332,49.609 232.441,49.609 231.940 C 49.609 231.440,49.337 230.068,49.003 228.894 C 48.670 227.719,48.160 225.439,47.869 223.828 C 47.579 222.217,47.172 220.459,46.964 219.922 C 46.757 219.385,46.459 217.715,46.302 216.211 C 46.145 214.707,45.798 212.949,45.531 212.305 C 44.601 210.059,43.949 202.651,44.569 201.384 C 45.944 198.577,50.924 197.782,64.453 198.211 C 83.717 198.821,82.993 199.064,79.906 193.036 C 77.639 188.610,76.715 186.182,76.387 183.789 C 76.239 182.715,75.866 180.965,75.557 179.901 C 74.163 175.100,74.501 163.457,76.162 159.100 C 76.588 157.982,76.788 156.975,76.607 156.863 C 76.118 156.561,76.581 154.656,77.200 154.418 C 77.494 154.306,77.734 153.996,77.734 153.730 C 77.734 152.935,81.519 147.796,82.752 146.918 C 83.382 146.469,84.015 145.635,84.158 145.064 C 84.301 144.493,85.426 142.777,86.657 141.251 C 87.888 139.725,89.173 138.037,89.514 137.500 C 89.855 136.963,90.559 136.084,91.079 135.547 C 91.599 135.010,92.886 133.516,93.939 132.227 C 94.992 130.938,96.675 129.004,97.679 127.930 C 98.683 126.855,100.526 124.482,101.775 122.656 C 103.023 120.830,104.596 118.633,105.270 117.773 C 107.550 114.866,113.209 105.685,114.867 102.202 C 116.706 98.341,116.797 96.370,115.433 90.039 C 114.295 84.759,115.073 77.736,117.207 74.023 C 118.927 71.031,123.327 66.022,125.159 64.972 C 132.560 60.730,137.562 59.884,143.750 61.829 M170.931 80.683 C 168.371 80.962,165.559 81.367,164.681 81.583 C 163.804 81.799,161.592 82.090,159.766 82.230 C 151.538 82.858,142.314 87.065,133.789 94.078 C 131.855 95.669,129.772 97.520,129.159 98.192 C 128.546 98.864,127.126 100.381,126.004 101.563 C 123.749 103.937,122.051 106.316,120.705 108.984 C 120.217 109.951,118.148 113.291,116.106 116.406 C 114.064 119.521,111.935 122.773,111.376 123.633 C 107.877 129.006,102.616 135.654,97.905 140.653 C 96.372 142.280,93.947 145.027,92.517 146.757 L 89.918 149.902 91.541 151.659 C 92.434 152.625,94.219 154.086,95.508 154.905 C 96.797 155.725,98.088 156.630,98.377 156.918 C 100.089 158.620,101.158 158.718,102.500 157.294 C 103.381 156.360,104.510 155.727,106.170 155.234 C 108.297 154.602,108.543 154.427,108.354 153.674 C 108.106 152.686,109.250 150.257,111.264 147.492 C 112.035 146.434,113.327 144.544,114.137 143.292 C 121.891 131.295,138.438 122.588,153.524 122.566 C 163.612 122.552,167.815 126.804,167.707 136.914 C 167.643 143.014,163.245 155.883,160.857 156.960 C 160.705 157.029,161.089 157.786,161.710 158.643 C 162.331 159.500,162.949 160.707,163.085 161.324 C 163.570 163.534,165.234 163.832,174.023 163.285 C 178.192 163.025,183.266 163.026,189.258 163.288 C 194.199 163.504,199.558 163.723,201.166 163.774 L 204.089 163.867 204.315 162.305 C 204.809 158.892,206.812 156.037,209.389 155.073 C 212.007 154.094,212.004 154.109,210.432 150.195 C 209.166 147.046,209.213 137.613,210.506 135.083 C 215.874 124.581,231.037 123.515,246.289 132.567 C 247.578 133.332,248.809 134.096,249.023 134.264 C 249.238 134.433,250.091 134.922,250.918 135.352 C 258.186 139.127,267.969 152.511,268.116 158.881 C 268.178 161.524,268.439 161.525,273.563 158.903 C 280.577 155.313,281.999 153.999,280.868 152.153 C 280.471 151.506,279.092 148.516,277.802 145.508 C 276.512 142.500,275.016 139.055,274.478 137.851 C 273.939 136.648,272.272 131.990,270.772 127.500 C 267.318 117.155,266.882 116.175,264.314 112.981 C 260.320 108.011,248.454 98.991,242.378 96.303 C 241.095 95.736,238.199 94.272,235.941 93.049 C 231.350 90.563,230.377 90.143,223.438 87.645 C 208.015 82.092,185.456 79.101,170.931 80.683 M188.113 82.027 C 188.987 82.229,191.711 82.578,194.167 82.803 C 196.623 83.028,199.688 83.460,200.977 83.762 C 202.266 84.064,204.551 84.432,206.055 84.580 C 207.559 84.727,209.235 85.078,209.781 85.360 C 210.326 85.642,211.644 86.044,212.710 86.255 C 217.226 87.147,227.322 90.306,229.297 91.445 C 229.619 91.631,231.289 92.492,233.008 93.360 C 234.727 94.227,236.924 95.355,237.891 95.866 C 238.857 96.377,240.967 97.439,242.578 98.227 C 244.189 99.015,245.855 99.868,246.279 100.123 C 248.678 101.564,251.820 103.677,252.517 104.318 C 252.959 104.724,255.078 106.446,257.227 108.144 C 259.375 109.842,261.572 111.806,262.109 112.508 C 262.646 113.210,263.353 114.070,263.680 114.420 C 264.819 115.639,266.314 118.575,267.176 121.289 C 267.654 122.793,268.367 124.990,268.761 126.172 C 269.156 127.354,269.864 129.639,270.336 131.250 C 271.290 134.507,272.460 137.508,274.375 141.602 C 275.078 143.105,276.016 145.215,276.460 146.289 C 276.904 147.363,277.711 149.297,278.255 150.586 C 279.950 154.610,279.945 154.742,278.040 155.899 C 275.845 157.231,270.656 159.859,270.540 159.697 C 270.490 159.627,269.951 158.079,269.342 156.257 C 267.209 149.866,264.329 145.478,258.556 139.823 C 255.528 136.858,250.854 133.204,250.085 133.203 C 249.931 133.202,248.762 132.478,247.488 131.594 C 234.631 122.670,215.635 122.936,210.311 132.114 C 207.831 136.388,207.026 142.428,208.329 146.978 C 210.370 154.107,210.363 154.301,208.016 155.075 C 206.580 155.549,203.906 159.942,203.906 161.826 C 203.906 163.496,203.339 163.623,197.656 163.230 C 187.726 162.544,176.326 162.382,171.952 162.865 C 163.488 163.799,161.163 161.525,164.194 155.273 C 170.843 141.557,171.078 129.924,164.828 123.858 C 159.873 119.049,144.944 119.857,133.050 125.578 C 131.478 126.334,130.070 126.953,129.921 126.953 C 128.464 126.953,119.474 134.476,115.659 138.888 C 113.928 140.888,108.518 148.698,107.961 150.000 C 105.973 154.644,105.743 155.023,104.768 155.267 C 104.210 155.407,103.166 156.037,102.449 156.667 C 100.662 158.236,101.118 158.418,94.238 153.381 C 91.020 151.025,91.658 149.396,98.464 142.601 C 99.445 141.622,101.467 139.334,102.956 137.517 C 104.445 135.700,106.016 133.832,106.445 133.366 C 106.875 132.899,107.926 131.486,108.780 130.224 C 109.635 128.962,110.814 127.314,111.400 126.563 C 112.413 125.262,116.406 118.803,116.406 118.465 C 116.406 118.376,117.098 117.482,117.944 116.476 C 118.790 115.471,120.305 112.979,121.311 110.938 C 124.076 105.326,129.272 99.450,136.835 93.379 C 139.503 91.239,148.981 85.973,150.215 85.946 C 150.440 85.941,150.843 85.720,151.109 85.453 C 151.864 84.699,157.182 83.577,161.914 83.175 C 164.277 82.974,167.529 82.569,169.141 82.276 C 172.565 81.654,185.748 81.480,188.113 82.027 M86.807 155.606 C 86.581 156.282,85.860 158.313,85.203 160.117 C 80.922 171.889,83.417 185.265,91.747 195.191 C 95.494 199.656,96.694 199.800,122.852 198.922 C 141.380 198.300,151.541 198.582,153.861 199.781 C 155.812 200.790,156.842 202.979,159.939 212.695 C 160.418 214.199,160.942 215.781,161.103 216.211 C 161.264 216.641,161.864 218.309,162.436 219.919 C 163.772 223.677,167.770 231.525,169.044 232.889 C 170.982 234.964,182.176 235.996,193.990 235.190 C 198.048 234.913,204.268 234.547,207.813 234.378 C 213.567 234.102,220.483 233.385,221.108 232.999 C 221.235 232.921,222.998 232.498,225.025 232.060 C 227.052 231.621,230.205 230.911,232.031 230.481 C 233.857 230.051,236.494 229.516,237.891 229.292 C 243.752 228.351,259.369 222.595,268.247 218.103 C 276.546 213.904,286.177 203.940,290.464 195.117 C 295.468 184.820,295.327 180.240,289.658 168.945 C 283.560 156.797,284.130 157.573,282.443 159.115 C 281.894 159.617,280.566 160.344,279.492 160.732 C 272.760 163.157,266.560 167.474,266.352 169.880 C 266.322 170.225,266.250 171.211,266.193 172.070 C 265.529 181.974,265.241 184.502,264.680 185.359 C 264.087 186.263,261.272 187.362,260.604 186.950 C 260.431 186.842,257.315 186.562,253.680 186.327 C 250.045 186.091,244.697 185.724,241.797 185.510 C 238.896 185.297,232.920 184.957,228.516 184.755 C 215.142 184.141,207.324 183.233,205.084 182.034 C 203.976 181.442,203.832 180.511,203.973 174.851 C 204.114 169.138,203.865 168.322,202.003 168.405 C 201.201 168.440,201.148 168.490,201.758 168.633 C 203.316 168.998,203.516 169.812,203.516 175.795 C 203.516 180.927,203.593 181.589,204.259 182.192 C 205.698 183.495,212.311 184.381,226.172 185.130 C 229.072 185.287,231.973 185.634,232.617 185.901 C 233.399 186.225,235.480 186.352,238.867 186.281 C 241.699 186.222,245.500 186.406,247.461 186.697 C 249.395 186.984,253.843 187.212,257.347 187.204 C 265.885 187.184,265.348 187.705,266.174 178.646 C 266.558 174.440,266.923 172.370,267.478 171.264 C 267.902 170.418,268.374 169.207,268.527 168.571 C 269.019 166.531,273.063 163.771,279.102 161.353 C 282.385 160.038,283.127 160.110,284.141 161.838 C 293.553 177.882,294.442 183.777,289.132 194.922 C 288.275 196.720,285.448 201.274,284.766 201.953 C 284.658 202.061,283.968 202.924,283.231 203.873 C 280.452 207.450,273.334 213.531,269.276 215.796 C 268.664 216.137,267.900 216.584,267.578 216.789 C 266.831 217.263,263.774 218.567,262.500 218.953 C 261.963 219.117,260.911 219.577,260.162 219.977 C 259.413 220.376,258.661 220.703,258.491 220.703 C 258.320 220.703,256.911 221.286,255.360 221.999 C 251.822 223.624,248.590 224.884,247.070 225.231 C 246.426 225.378,245.716 225.640,245.494 225.813 C 245.004 226.195,238.601 227.682,235.352 228.169 C 234.063 228.362,232.480 228.714,231.836 228.951 C 230.288 229.521,224.712 230.753,221.289 231.282 C 219.785 231.514,217.412 231.967,216.016 232.287 C 214.449 232.647,209.812 232.997,203.907 233.203 C 198.643 233.385,192.352 233.753,189.926 234.020 C 186.366 234.412,184.900 234.408,182.309 234.001 C 180.545 233.723,177.277 233.374,175.046 233.224 C 171.196 232.966,170.949 232.896,170.163 231.850 C 168.268 229.326,166.003 225.281,164.956 222.552 C 162.839 217.034,162.522 216.143,162.284 215.039 C 161.969 213.580,160.461 209.040,159.430 206.445 C 159.003 205.371,158.276 203.525,157.814 202.344 C 156.548 199.109,155.191 198.254,150.285 197.602 C 145.132 196.917,131.807 196.917,121.484 197.602 C 110.238 198.348,97.094 198.102,95.508 197.114 C 93.385 195.793,89.933 190.961,87.383 185.742 C 84.939 180.738,84.122 169.079,85.823 163.477 C 88.167 155.757,88.414 155.597,92.963 158.862 C 94.702 160.111,97.387 161.836,98.928 162.695 C 102.476 164.673,102.604 165.067,102.973 175.066 C 103.290 183.687,103.417 184.001,107.217 185.543 L 109.367 186.415 127.828 185.979 C 137.982 185.739,149.682 185.543,153.828 185.545 C 165.201 185.548,165.935 184.660,164.436 172.706 C 164.155 170.465,164.154 169.305,164.433 168.969 C 165.239 167.998,179.742 167.557,193.945 168.072 C 199.276 168.265,200.457 168.229,198.828 167.925 C 196.355 167.462,167.248 167.297,165.350 167.735 C 163.683 168.119,163.631 168.409,164.032 175.149 C 164.658 185.704,166.286 184.959,142.578 184.969 C 132.373 184.973,120.763 185.130,116.778 185.319 C 104.234 185.913,103.759 185.530,103.378 174.502 C 103.046 164.918,102.856 164.299,99.771 162.705 C 98.500 162.049,96.143 160.533,94.531 159.338 C 92.920 158.142,90.615 156.536,89.409 155.769 L 87.216 154.375 86.807 155.606 M211.028 159.268 C 208.677 159.559,208.415 160.488,208.270 169.072 C 208.081 180.254,206.884 179.327,222.266 179.916 C 225.381 180.035,228.369 180.154,228.906 180.180 C 229.443 180.207,230.752 180.194,231.815 180.153 L 233.747 180.078 231.899 178.906 C 230.883 178.262,229.876 177.734,229.663 177.734 C 228.998 177.734,221.637 170.191,220.895 168.750 C 220.508 167.998,219.164 166.057,217.908 164.437 C 216.652 162.817,215.625 161.279,215.625 161.019 C 215.625 160.759,215.273 160.195,214.844 159.766 C 214.080 159.002,213.638 158.944,211.028 159.268 M122.928 160.013 C 122.540 160.128,122.296 160.427,122.385 160.677 C 122.475 160.928,122.221 161.785,121.821 162.582 C 121.336 163.549,121.094 164.874,121.094 166.563 C 121.094 169.446,121.667 170.314,121.989 167.918 C 122.446 164.508,125.723 163.198,129.212 165.030 C 135.325 168.238,135.474 175.000,129.432 175.000 C 126.483 175.000,127.135 175.767,130.326 176.052 C 135.467 176.511,138.417 172.604,138.531 165.186 L 138.600 160.635 137.171 160.416 C 135.049 160.091,123.744 159.771,122.928 160.013 M212.587 160.115 C 213.470 160.451,214.401 161.671,219.026 168.555 C 221.224 171.826,225.964 176.963,227.875 178.143 C 229.755 179.304,228.235 179.611,221.484 179.435 C 208.972 179.108,208.581 178.927,208.621 173.475 C 208.711 161.037,209.351 158.885,212.587 160.115 M136.238 161.262 C 137.691 163.100,137.596 166.821,135.985 171.172 C 135.672 172.016,135.634 171.989,135.355 170.719 C 134.311 165.970,130.842 163.197,125.966 163.216 C 122.820 163.229,122.695 163.148,123.806 161.817 C 125.271 160.061,134.948 159.629,136.238 161.262 M241.150 162.121 C 235.249 163.304,232.178 167.821,233.735 173.029 L 234.255 174.769 234.472 172.849 C 234.930 168.781,239.620 168.360,243.453 172.042 C 245.564 174.071,245.191 177.304,242.742 178.189 C 241.408 178.672,241.403 178.682,242.279 179.168 C 245.579 181.001,251.643 177.207,252.743 172.622 C 254.233 166.408,247.988 160.751,241.150 162.121 M157.265 163.965 C 155.658 167.004,148.803 172.646,143.127 175.600 C 134.539 180.070,120.965 180.735,116.250 176.917 C 116.014 176.726,114.580 175.664,113.063 174.557 C 110.517 172.699,108.845 170.823,108.097 168.986 C 107.931 168.579,107.736 168.315,107.664 168.400 C 107.310 168.815,108.135 180.166,108.549 180.580 C 109.319 181.350,114.627 181.380,121.115 180.650 C 126.462 180.048,128.073 180.017,133.457 180.410 C 142.920 181.100,158.380 181.017,159.126 180.271 C 160.175 179.222,160.224 178.213,159.567 171.194 C 158.802 163.025,158.411 161.797,157.265 163.965 M245.350 163.716 C 249.679 164.645,252.682 169.070,251.351 172.559 C 249.890 176.388,245.816 179.022,246.331 175.804 C 246.892 172.291,241.709 167.815,237.305 168.010 C 232.764 168.210,237.980 163.807,242.852 163.327 C 243.110 163.302,244.234 163.477,245.350 163.716 M159.091 172.654 C 159.603 181.197,160.566 180.469,148.768 180.469 L 139.453 180.469 139.453 179.492 C 139.453 178.909,139.677 178.516,140.008 178.516 C 140.478 178.516,144.589 176.506,146.800 175.194 C 149.539 173.571,152.840 170.977,155.209 168.585 C 158.681 165.080,158.633 165.030,159.091 172.654 M122.656 171.461 C 122.656 172.370,122.832 172.656,123.390 172.656 C 123.793 172.656,124.365 172.997,124.659 173.414 C 125.248 174.246,126.484 174.643,126.558 174.023 C 126.583 173.809,126.287 173.568,125.901 173.488 C 125.148 173.333,123.438 171.672,123.438 171.097 C 123.438 170.906,123.262 170.641,123.047 170.508 C 122.819 170.367,122.656 170.764,122.656 171.461 M177.148 171.692 C 176.289 172.032,175.099 172.464,174.503 172.653 C 166.979 175.043,170.568 186.649,180.138 190.879 C 182.707 192.014,181.288 196.223,178.199 196.633 C 175.706 196.964,173.888 196.575,172.487 195.413 C 170.686 193.917,167.969 194.833,167.969 196.936 C 167.969 197.740,170.177 200.391,170.847 200.391 C 171.097 200.391,171.957 200.742,172.758 201.172 C 174.862 202.299,179.455 202.266,181.679 201.106 C 183.199 200.314,183.461 200.292,185.695 200.764 C 193.260 202.364,200.781 200.450,200.781 196.925 C 200.781 194.474,198.199 193.823,195.840 195.680 C 194.169 196.994,187.819 196.869,186.547 195.497 C 184.640 193.438,185.053 191.892,187.891 190.466 C 198.515 185.130,201.909 174.347,193.446 172.815 C 192.646 172.670,191.465 172.285,190.821 171.958 C 189.041 171.055,179.242 170.865,177.148 171.692 M189.596 173.114 C 199.750 175.292,198.461 183.505,187.059 189.283 C 183.614 191.029,182.912 193.319,185.078 195.743 C 186.917 197.801,193.796 198.213,196.726 196.440 C 198.665 195.267,199.685 195.442,199.536 196.924 C 199.253 199.748,190.067 201.333,185.223 199.395 C 183.943 198.883,183.463 198.841,183.025 199.204 C 180.355 201.420,171.307 200.635,169.933 198.069 C 168.922 196.178,170.169 195.161,171.916 196.453 C 176.219 199.635,182.813 197.291,182.813 192.580 C 182.813 190.972,182.404 190.504,179.593 188.886 C 165.257 180.635,172.371 169.420,189.596 173.114 M114.279 177.457 C 115.150 178.039,116.030 178.516,116.236 178.516 C 116.441 178.516,116.829 178.867,117.097 179.297 C 117.365 179.727,117.979 180.098,118.460 180.123 C 120.445 180.225,115.975 180.816,113.063 180.837 C 108.897 180.867,108.554 180.594,108.300 177.045 C 108.001 172.861,108.201 172.660,110.644 174.692 C 111.772 175.631,113.408 176.875,114.279 177.457 M260.433 177.994 C 260.087 178.553,256.450 180.610,254.883 181.132 C 253.718 181.520,253.723 181.525,255.781 181.972 C 260.571 183.013,261.971 182.083,260.980 178.520 C 260.813 177.920,260.603 177.718,260.433 177.994 M83.781 204.241 C 83.703 204.318,76.874 204.374,68.605 204.365 C 53.249 204.349,51.724 204.452,51.029 205.554 C 50.564 206.291,51.813 214.669,53.315 220.898 C 57.098 236.578,59.228 244.606,61.711 252.539 C 62.519 255.117,63.929 260.391,64.846 264.258 C 65.763 268.125,66.663 271.904,66.846 272.656 C 67.459 275.179,68.785 276.364,70.956 276.328 C 71.999 276.311,78.916 276.159,86.328 275.989 C 98.694 275.707,128.862 276.436,134.570 277.155 C 137.592 277.536,167.445 278.902,172.780 278.904 C 180.379 278.907,180.758 278.533,178.451 273.308 C 177.217 270.513,176.673 269.111,174.108 262.109 C 173.360 260.068,172.102 256.641,171.312 254.492 C 170.522 252.344,168.575 247.598,166.983 243.945 C 165.392 240.293,163.484 235.723,162.742 233.789 C 162.000 231.855,160.226 227.549,158.799 224.219 C 155.498 216.512,154.452 213.861,153.944 211.914 C 152.332 205.728,150.377 204.611,140.451 204.211 C 133.076 203.914,84.085 203.940,83.781 204.241 M134.609 205.859 C 134.824 206.074,138.111 206.463,141.914 206.723 C 146.838 207.060,148.828 207.334,148.828 207.674 C 148.828 207.936,149.180 208.262,149.609 208.398 C 150.039 208.535,150.391 208.928,150.391 209.273 C 150.391 209.617,150.662 210.199,150.993 210.565 C 151.325 210.932,151.700 211.912,151.827 212.745 C 151.955 213.577,152.298 214.535,152.591 214.874 C 152.884 215.212,153.276 216.309,153.464 217.311 C 153.651 218.313,153.986 219.354,154.207 219.625 C 154.429 219.896,154.813 220.873,155.060 221.797 C 155.308 222.722,155.764 223.575,156.075 223.695 C 156.386 223.814,156.641 224.387,156.641 224.968 C 156.641 225.549,156.966 226.374,157.364 226.801 C 157.761 227.227,158.210 228.237,158.362 229.043 C 158.513 229.850,158.891 230.607,159.201 230.726 C 159.571 230.868,159.766 231.516,159.766 232.606 C 159.766 233.678,160.043 234.623,160.547 235.263 C 160.977 235.809,161.328 236.776,161.328 237.411 C 161.328 238.047,161.656 238.986,162.056 239.498 C 162.456 240.010,162.902 240.809,163.047 241.273 C 163.193 241.737,163.568 242.330,163.882 242.591 C 164.196 242.851,164.453 243.371,164.453 243.745 C 164.453 244.120,164.779 244.845,165.178 245.357 C 165.576 245.870,166.025 246.957,166.176 247.774 C 166.326 248.591,166.703 249.357,167.014 249.476 C 167.346 249.604,167.578 250.216,167.578 250.966 C 167.578 251.666,167.904 252.658,168.303 253.170 C 168.701 253.682,169.156 254.805,169.312 255.664 C 169.469 256.523,169.820 257.490,170.092 257.813 C 170.364 258.135,171.079 259.980,171.682 261.914 C 172.285 263.848,172.995 265.781,173.259 266.211 C 173.524 266.641,173.853 267.634,173.990 268.418 C 174.127 269.202,174.487 270.049,174.790 270.300 C 175.093 270.552,175.458 271.294,175.602 271.950 C 175.747 272.606,176.214 273.736,176.641 274.460 C 177.329 275.625,177.347 275.804,176.803 276.013 C 175.828 276.387,140.668 275.506,138.281 275.048 C 137.100 274.821,129.629 274.448,121.680 274.218 C 113.730 273.988,106.776 273.623,106.224 273.406 C 104.666 272.793,73.136 273.708,71.386 274.416 C 69.535 275.166,68.912 274.433,67.986 270.417 C 67.501 268.319,66.837 265.547,66.509 264.258 C 66.180 262.969,65.764 260.668,65.582 259.144 C 65.401 257.620,64.986 255.863,64.660 255.238 C 64.334 254.613,64.066 253.569,64.065 252.919 C 64.064 252.269,63.824 251.390,63.532 250.966 C 63.241 250.542,62.779 249.229,62.506 248.047 C 62.233 246.865,61.792 245.635,61.525 245.313 C 61.259 244.990,60.940 243.698,60.818 242.440 C 60.695 241.183,60.341 239.864,60.030 239.510 C 59.715 239.152,59.389 237.763,59.293 236.373 C 59.174 234.638,58.923 233.734,58.467 233.401 C 58.006 233.063,57.812 232.345,57.812 230.972 C 57.813 228.962,57.183 226.563,56.656 226.563 C 56.491 226.563,56.265 225.420,56.153 224.024 C 56.041 222.627,55.665 221.051,55.318 220.522 C 54.971 219.992,54.688 218.768,54.688 217.801 C 54.688 216.834,54.398 215.202,54.045 214.174 C 52.205 208.826,52.327 205.422,54.336 206.014 C 57.837 207.046,120.741 206.947,122.531 205.906 C 123.447 205.373,134.082 205.332,134.609 205.859 M230.236 237.261 C 230.111 237.587,230.124 238.040,230.265 238.267 C 230.406 238.495,230.066 239.643,229.510 240.819 C 228.954 241.995,228.403 243.531,228.286 244.232 C 227.681 247.866,228.501 247.687,218.945 246.273 C 201.696 243.719,176.011 241.619,174.158 242.611 C 172.841 243.315,173.535 246.104,178.088 258.398 C 178.486 259.473,179.101 261.143,179.455 262.109 C 180.833 265.871,186.545 276.719,187.500 277.388 C 188.116 277.819,189.846 278.221,192.188 278.476 C 206.495 280.037,208.890 281.031,211.680 286.564 C 213.865 290.896,214.802 291.406,220.569 291.406 C 224.385 291.406,224.801 291.032,223.538 288.738 C 222.615 287.060,221.246 282.337,219.328 274.219 C 219.049 273.037,218.632 271.465,218.400 270.725 C 217.440 267.651,217.801 258.823,218.970 256.829 C 221.557 252.415,233.027 249.448,231.432 253.606 C 231.120 254.418,229.223 255.409,227.430 255.696 C 223.533 256.319,222.999 259.379,226.563 260.670 C 229.171 261.616,240.927 262.103,243.383 261.367 C 246.460 260.445,246.049 258.806,242.287 256.985 C 240.350 256.047,239.617 254.861,240.010 253.297 C 240.680 250.627,246.665 253.198,249.584 257.410 C 251.969 260.852,250.537 273.685,246.662 283.594 C 246.368 284.346,245.959 285.616,245.754 286.416 C 245.549 287.217,244.830 288.688,244.156 289.686 C 242.671 291.887,242.614 291.823,246.372 292.217 C 253.220 292.935,257.422 292.155,257.422 290.165 C 257.422 289.928,257.756 289.012,258.164 288.129 C 260.460 283.158,260.873 281.733,261.291 277.323 C 262.084 268.954,261.955 267.251,259.859 258.475 C 258.433 252.506,257.865 252.169,245.898 250.193 C 241.852 249.525,240.533 248.835,239.992 247.106 C 239.851 246.657,239.409 245.870,239.009 245.357 C 237.840 243.861,238.073 242.239,239.693 240.579 C 241.233 239.002,241.173 238.281,239.503 238.281 C 236.655 238.281,235.090 242.698,236.672 246.274 C 237.885 249.017,237.494 249.415,234.251 248.734 C 230.269 247.899,229.637 245.977,231.861 241.463 C 233.553 238.028,233.524 236.964,231.736 236.791 C 230.874 236.708,230.390 236.860,230.236 237.261 M193.608 244.886 C 199.868 245.280,205.154 245.704,205.354 245.828 C 205.555 245.952,207.640 246.243,209.988 246.475 C 212.336 246.707,215.400 247.143,216.797 247.444 C 218.193 247.745,220.742 248.178,222.461 248.406 C 224.180 248.634,226.164 248.932,226.871 249.067 C 227.799 249.244,228.362 249.125,228.899 248.639 C 229.608 247.997,229.693 248.018,230.739 249.076 L 231.836 250.186 229.102 250.473 C 227.598 250.630,225.840 251.008,225.195 251.311 C 224.551 251.614,223.276 252.066,222.363 252.314 C 221.450 252.563,220.703 252.923,220.703 253.114 C 220.703 253.306,220.352 253.574,219.923 253.711 C 216.331 254.851,215.647 266.604,218.582 276.758 C 219.141 278.691,219.816 281.242,220.083 282.427 C 220.349 283.611,220.883 285.406,221.269 286.416 C 222.286 289.079,222.004 289.453,218.983 289.453 C 215.509 289.453,214.713 289.064,213.640 286.844 C 211.108 281.603,207.988 278.918,204.420 278.908 C 203.951 278.907,203.072 278.715,202.467 278.480 C 201.862 278.246,198.906 277.805,195.898 277.501 C 187.928 276.694,188.201 276.840,185.884 272.128 C 184.812 269.948,183.798 267.900,183.630 267.578 C 181.823 264.102,180.068 259.687,177.964 253.320 C 176.970 250.312,175.984 247.546,175.773 247.173 C 175.563 246.800,175.391 245.851,175.391 245.064 L 175.391 243.634 178.809 243.902 C 180.688 244.049,187.348 244.492,193.608 244.886 M237.825 252.286 C 238.150 254.582,236.869 256.108,235.009 255.641 C 234.000 255.388,233.547 253.937,233.900 252.089 C 234.169 250.681,237.623 250.854,237.825 252.286 M251.595 252.899 C 256.548 253.783,257.850 254.839,258.378 258.398 C 258.538 259.473,258.939 260.967,259.270 261.719 C 261.033 265.722,259.838 281.767,257.392 286.940 C 256.979 287.813,256.641 288.796,256.641 289.123 C 256.641 290.146,254.790 290.625,250.861 290.619 C 245.306 290.610,245.469 291.038,248.029 283.203 C 250.698 275.035,251.132 273.282,251.561 268.945 C 251.795 266.582,252.075 264.350,252.185 263.985 C 252.983 261.321,249.399 253.516,247.377 253.516 C 246.890 253.516,246.869 253.407,247.266 252.930 C 247.846 252.230,247.842 252.230,251.595 252.899 M221.945 265.345 C 219.678 268.077,223.429 283.661,226.987 286.291 C 228.326 287.281,230.893 287.501,231.850 286.707 C 232.380 286.267,234.777 286.348,238.556 286.934 C 240.429 287.224,242.325 286.206,242.797 284.658 C 242.943 284.180,243.377 283.086,243.761 282.227 C 244.146 281.367,244.588 279.961,244.743 279.102 C 244.899 278.242,245.282 277.034,245.594 276.418 C 246.286 275.053,246.721 266.874,246.147 266.039 C 245.833 265.582,244.221 265.464,237.626 265.416 C 233.152 265.383,227.906 265.219,225.968 265.051 C 223.015 264.795,222.362 264.843,221.945 265.345 M266.839 266.452 C 265.586 270.047,267.241 274.624,269.785 274.603 C 271.514 274.589,272.265 272.884,271.175 271.448 C 270.782 270.931,269.984 269.515,269.401 268.302 C 267.944 265.268,267.391 264.869,266.839 266.452 M226.830 266.439 C 227.435 266.671,231.885 266.979,236.719 267.122 L 245.508 267.383 245.425 270.277 C 245.380 271.868,245.093 273.714,244.787 274.378 C 244.481 275.042,244.112 276.421,243.966 277.441 C 243.821 278.462,243.555 279.297,243.374 279.297 C 243.194 279.297,242.829 280.220,242.563 281.348 C 242.297 282.476,241.764 283.848,241.379 284.398 L 240.678 285.397 234.229 285.427 L 227.779 285.458 226.780 284.016 C 226.231 283.224,225.781 282.364,225.781 282.106 C 225.781 281.849,225.430 280.982,225.000 280.180 C 224.570 279.378,224.219 278.319,224.219 277.825 C 224.219 277.332,223.937 276.274,223.594 275.476 C 222.945 273.969,222.374 267.706,222.787 266.630 C 223.065 265.904,225.181 265.804,226.830 266.439 M269.922 272.262 C 269.922 273.096,268.531 272.599,268.066 271.599 C 267.209 269.753,267.505 269.339,268.750 270.642 C 269.395 271.316,269.922 272.045,269.922 272.262 M284.363 277.367 C 283.117 279.694,284.404 280.819,288.406 280.905 C 292.380 280.989,292.528 279.233,288.672 277.746 C 287.920 277.456,287.138 277.071,286.934 276.891 C 286.247 276.284,284.799 276.552,284.363 277.367 M275.812 277.565 C 274.861 277.867,273.566 278.644,272.933 279.292 L 271.782 280.469 275.127 280.469 C 278.834 280.469,279.985 279.787,279.323 277.982 C 278.946 276.957,278.057 276.852,275.812 277.565 M74.031 283.660 C 65.270 284.039,64.779 284.195,66.045 286.193 C 67.107 287.868,68.922 288.640,72.329 288.866 C 89.485 290.002,170.438 291.610,177.556 290.956 C 181.771 290.568,182.422 290.264,182.422 288.685 C 182.422 286.501,182.137 286.449,168.945 286.196 C 162.285 286.068,152.529 285.699,147.266 285.376 C 142.002 285.052,133.213 284.602,127.734 284.376 C 122.256 284.151,114.434 283.796,110.352 283.588 C 101.670 283.146,85.117 283.179,74.031 283.660 M190.639 283.959 C 188.912 287.185,190.968 288.481,198.750 289.071 C 204.674 289.521,205.356 289.330,204.862 287.361 C 204.177 284.631,191.857 281.683,190.639 283.959 M267.620 285.501 C 264.770 286.013,263.272 289.230,265.053 291.012 C 266.024 291.984,266.095 291.993,273.348 292.051 C 277.372 292.084,284.468 292.222,289.117 292.359 C 298.539 292.637,299.097 292.516,298.461 290.332 C 297.913 288.452,296.404 286.278,295.375 285.887 C 294.136 285.416,269.965 285.080,267.620 285.501 M275.684 287.851 C 280.818 287.293,294.722 288.129,294.851 289.003 L 294.976 289.844 280.859 289.844 L 266.743 289.844 266.867 288.965 C 266.978 288.183,267.187 288.098,268.750 288.191 C 269.717 288.249,271.035 288.126,271.680 287.917 C 272.324 287.708,273.379 287.620,274.023 287.720 C 274.668 287.821,275.415 287.880,275.684 287.851 " stroke="none" fill="#979fa9" fill-rule="evenodd"></path><path id="path4" d="M109.513 187.012 C 110.240 189.620,110.013 189.453,112.844 189.453 C 115.240 189.453,115.577 189.555,116.562 190.584 C 117.958 192.041,120.426 192.729,123.107 192.409 C 127.947 191.829,134.604 191.731,136.607 192.210 C 139.323 192.858,140.008 192.357,139.734 189.923 C 139.433 187.254,139.651 187.310,129.249 187.257 C 122.865 187.224,119.725 187.068,119.425 186.769 C 118.608 185.952,109.281 186.181,109.513 187.012 M233.402 186.713 C 233.272 186.924,232.614 187.240,231.941 187.414 C 228.701 188.254,230.282 191.791,233.899 191.795 C 235.962 191.797,237.787 192.544,239.033 193.895 C 240.184 195.143,241.633 195.220,243.648 194.141 C 244.852 193.496,245.852 193.359,249.387 193.359 C 253.456 193.359,253.720 193.309,254.719 192.352 C 256.799 190.360,254.935 188.672,250.653 188.672 C 248.898 188.672,247.996 188.496,247.656 188.086 C 247.389 187.764,246.686 187.500,246.094 187.500 C 245.502 187.500,244.799 187.764,244.531 188.086 C 243.462 189.374,238.669 188.317,237.956 186.635 C 237.766 186.189,233.683 186.258,233.402 186.713 M111.067 234.330 C 109.741 234.965,107.943 236.198,107.070 237.071 C 105.247 238.894,104.633 238.848,102.191 236.704 C 98.527 233.487,92.425 233.335,89.575 236.389 C 86.711 239.457,88.073 247.095,92.056 250.300 C 92.785 250.887,93.948 251.874,94.640 252.493 C 96.015 253.724,97.994 254.688,99.146 254.688 C 99.550 254.688,100.478 254.995,101.210 255.371 C 105.476 257.564,120.703 250.189,120.703 245.930 C 120.703 245.640,120.996 244.495,121.354 243.385 C 123.385 237.100,117.007 231.486,111.067 234.330 " stroke="none" fill="#fc74bc" fill-rule="evenodd"></path></g></svg>